<svg width="1188" height="688" viewBox="0 0 1188 688" fill="none" xmlns="http://www.w3.org/2000/svg">
<path d="M296.44 162.488C307.185 153.375 323.284 154.697 332.398 165.443L610.036 492.787C619.15 503.533 617.827 519.632 607.082 528.745V528.745C596.337 537.859 580.238 536.536 571.124 525.791L293.486 198.446C284.372 187.701 285.695 171.602 296.44 162.488V162.488Z" fill="#EB4B98"/>
<path d="M857.697 165.112C868.443 155.998 884.541 157.321 893.655 168.066L1171.29 495.411C1180.41 506.156 1179.08 522.255 1168.34 531.369V531.369C1157.59 540.482 1141.49 539.16 1132.38 528.414L854.743 201.07C845.629 190.324 846.952 174.225 857.697 165.112V165.112Z" fill="#EB4B98"/>
<path d="M582.776 527.536C572.03 518.423 570.707 502.325 579.82 491.579L854.296 167.927C863.409 157.182 879.508 155.858 890.254 164.971V164.971C901 174.084 902.323 190.183 893.21 200.929L618.734 524.58C609.621 535.326 593.522 536.65 582.776 527.536V527.536Z" fill="#EB4B98"/>
<path d="M296.532 201.431C285.786 192.318 284.463 176.219 293.576 165.473L417.407 19.457C426.52 8.71125 442.619 7.38767 453.364 16.5008V16.5008C464.11 25.6138 465.434 41.7126 456.321 52.4584L332.49 198.475C323.377 209.221 307.278 210.544 296.532 201.431V201.431Z" fill="#EB4B98"/>
<path d="M292 181.5C292 167.417 303.422 156 317.512 156L871.488 156C885.578 156 897 167.417 897 181.5V181.5C897 195.583 885.578 207 871.488 207L317.512 207C303.422 207 292 195.583 292 181.5V181.5Z" fill="#EB4B98"/>
<path d="M569 509.5C569 495.417 580.399 484 594.46 484H994.54C1008.6 484 1020 495.417 1020 509.5V509.5C1020 523.583 1008.6 535 994.54 535H594.46C580.399 535 569 523.583 569 509.5V509.5Z" fill="#EB4B98"/>
<path d="M761 115.5C761 101.417 772.381 90 786.421 90H873.579C887.619 90 899 101.417 899 115.5V115.5C899 129.583 887.619 141 873.579 141H786.421C772.381 141 761 129.583 761 115.5V115.5Z" fill="#EB4B98"/>
<path d="M415 35.5C415 21.4167 426.464 10 440.605 10L528.395 10C542.536 10 554 21.4167 554 35.5V35.5C554 49.5833 542.536 61 528.395 61L440.605 61C426.464 61 415 49.5833 415 35.5V35.5Z" fill="#EB4B98"/>
<path d="M437 469.5C437 590.174 339.174 688 218.5 688C97.8258 688 0 590.174 0 469.5C0 348.826 97.8258 251 218.5 251C339.174 251 437 348.826 437 469.5Z" fill="#EB4B98"/>
<path d="M1188 469.5C1188 590.174 1090.17 688 969.5 688C848.826 688 751 590.174 751 469.5C751 348.826 848.826 251 969.5 251C1090.17 251 1188 348.826 1188 469.5Z" fill="#EB4B98"/>
</svg>
