<svg width="1188" height="688" viewBox="0 0 1188 688" fill="none" xmlns="http://www.w3.org/2000/svg">
<path d="M296.44 162.488C307.185 153.375 323.284 154.697 332.398 165.443L610.036 492.787C619.15 503.533 617.827 519.632 607.082 528.745C596.337 537.859 580.238 536.536 571.124 525.791L293.486 198.446C284.372 187.701 285.695 171.602 296.44 162.488Z" fill="#EB4B98"/>
<path d="M863 156.5C875 155 884 158 891 168L1013.96 502.889C1016.98 515.45 1012 527.495 1000.12 532.856C988.169 537.205 975.22 531.767 971.195 520.711L848.597 183.874C844.572 172.817 851 159.5 863 156.5Z" fill="#EB4B98"/>
<path d="M574.464 528.587C563.719 519.474 563.391 503.322 572.606 492.456L849.259 165.116C858.475 154.25 874.657 152.828 885.403 161.941C896.148 171.054 897.389 187.251 888.173 198.118L610.601 526.462C601.386 537.328 585.006 538.074 574.464 528.587Z" fill="#EB4B98"/>
<path d="M296.532 201.431C285.786 192.318 284.463 176.219 293.576 165.473L417.407 19.457C426.52 8.71124 442.619 7.38768 453.364 16.5008C464.11 25.6138 465.434 41.7126 456.321 52.4584L332.49 198.475C323.377 209.221 307.278 210.544 296.532 201.431Z" fill="#EB4B98"/>
<path d="M288.015 181.252C288.015 167.306 299.474 156 313.61 156L869.404 156C883.54 156 894 168 894.5 181.5C894.5 195.447 883.54 206.505 869.404 206.505L313.929 207C299.793 207 287.516 195.612 288.015 181.252Z" fill="#EB4B98"/>
<path d="M565 509.5C565 495.417 576.373 484 590.403 484H989.597C1003.63 484 1015 495.417 1015 509.5C1015 523.583 1003.63 535 989.597 535H590.403C576.373 535 565 523.583 565 509.5Z" fill="#EB4B98"/>
<path d="M761 115.5C761 101.417 772.381 90 786.421 90H873.579C887.619 90 898.5 101.417 898.5 115.5C898.5 129.583 887.619 141 873.579 141H786.421C772.381 141 761 129.583 761 115.5Z" fill="#EB4B98"/>
<path d="M412 35.5C412 21.4167 423.464 10 437.605 10L525.395 10C539.536 10 551 21.4167 551 35.5C551 49.5833 539.536 61 525.395 61L437.605 61C423.464 61 412 49.5833 412 35.5Z" fill="#EB4B98"/>
<path d="M437 469.5C437 590.174 339.174 688 218.5 688C97.8258 688 0 590.174 0 469.5C0 348.826 97.8258 251 218.5 251C339.174 251 437 348.826 437 469.5Z" fill="#EB4B98"/>
<path d="M1188 469.5C1188 590.174 1090.17 688 969.5 688C848.826 688 751 590.174 751 469.5C751 348.826 848.826 251 969.5 251C1090.17 251 1188 348.826 1188 469.5Z" fill="#EB4B98"/>
</svg>
