<svg width="155" height="194" viewBox="0 0 155 194" fill="none" xmlns="http://www.w3.org/2000/svg">
<path d="M77.5 0C98.9093 0 116.25 17.3629 116.25 38.7998H135.625C146.281 38.7998 155 47.5302 155 58.2002V174.6C155 185.27 146.281 194 135.625 194H19.375C8.71875 194 0 185.27 0 174.6V58.2002C0 47.5302 8.71875 38.7998 19.375 38.7998H38.75C38.7501 17.3629 56.0907 0 77.5 0ZM19.375 58.2002V174.6H135.625V58.2002H116.25V77.5996C116.25 82.9346 111.891 87.2998 106.562 87.2998C101.234 87.2998 96.875 82.9346 96.875 77.5996V58.2002H58.125V77.5996C58.125 82.9346 53.7656 87.2998 48.4375 87.2998C43.1094 87.2998 38.75 82.9346 38.75 77.5996V58.2002H19.375ZM77.5 19.4004C66.8438 19.4004 58.1251 28.1299 58.125 38.7998H96.875C96.8749 28.1299 88.1562 19.4004 77.5 19.4004Z" fill="white"/>
</svg>
