<svg width="195" height="175" viewBox="0 0 195 175" fill="none" xmlns="http://www.w3.org/2000/svg">
<path d="M91.2805 42.4093C89.329 40.4634 86.171 40.4634 84.2195 42.4093L77.6507 48.9594C75.6913 50.9132 75.6913 54.0868 77.6507 56.0406L99.45 77.7778H0V97.2222H99.45L77.6507 118.959C75.6913 120.913 75.6913 124.087 77.6507 126.041L84.2195 132.591C86.171 134.537 89.329 134.537 91.2805 132.591L132.949 91.0406C134.909 89.0868 134.909 85.9132 132.949 83.9594L91.2805 42.4093ZM175.5 150.556C175.5 153.317 173.261 155.556 170.5 155.556H102.5C99.7386 155.556 97.5 157.794 97.5 160.556V170C97.5 172.761 99.7386 175 102.5 175H175.5C186.225 175 195 166.25 195 155.556V19.4444C195 8.75 186.225 0 175.5 0H102.5C99.7386 0 97.5 2.23858 97.5 5V14.4444C97.5 17.2059 99.7386 19.4444 102.5 19.4444H170.5C173.261 19.4444 175.5 21.683 175.5 24.4444V150.556Z" fill="white"/>
</svg>
