<svg width="1267" height="218" viewBox="0 0 1267 218" fill="none" xmlns="http://www.w3.org/2000/svg">
<g filter="url(#filter0_ii_23_4)">
<path d="M1175.94 18.801C1194.76 18.801 1210.78 23.0223 1223.85 31.6106C1237.05 39.9929 1247.03 51.6769 1253.77 66.5862H1253.77C1260.5 81.2793 1263.83 98.0284 1263.83 116.78C1263.83 135.703 1260.5 152.542 1253.77 167.24C1247.02 181.973 1237.05 193.562 1223.87 201.939C1210.79 210.361 1194.76 214.498 1175.94 214.498C1157.11 214.498 1141.01 210.36 1127.76 201.948C1114.57 193.57 1104.6 181.978 1097.85 167.24C1091.12 152.542 1087.79 135.703 1087.79 116.78C1087.79 98.0285 1091.12 81.2792 1097.85 66.5862C1104.59 51.677 1114.57 39.9928 1127.76 31.6106C1141.01 23.0253 1157.11 18.8011 1175.94 18.801ZM1175.94 85.6418C1161.02 85.6419 1150.07 87.0228 1142.9 89.6311L1142.87 89.6399L1142.85 89.6477C1135.53 92.1423 1131.1 95.4016 1128.94 99.1399L1128.93 99.1584L1128.92 99.177C1126.59 103.063 1125.4 107.527 1125.4 112.639C1125.4 117.56 1126.58 122.241 1128.97 126.714C1131.16 130.635 1135.62 134.124 1142.91 136.945C1150.08 139.55 1161.03 140.93 1175.94 140.93C1190.85 140.93 1201.69 139.55 1208.68 136.955C1215.98 134.133 1220.45 130.641 1222.64 126.714C1225.04 122.241 1226.22 117.56 1226.22 112.639C1226.22 107.527 1225.03 103.064 1222.7 99.177L1222.68 99.1399C1220.52 95.4016 1216.09 92.1424 1208.77 89.6477L1208.74 89.637L1208.7 89.6252C1201.71 87.0246 1190.87 85.6418 1175.94 85.6418Z" fill="white" fill-opacity="0.05" stroke="url(#paint0_linear_23_4)" stroke-width="5"/>
<path d="M1003.53 17.2488C1026.79 17.2488 1044.41 20.5288 1056.04 27.4314H1056.04C1067.76 34.1177 1074.08 43.1089 1074.08 54.4207C1074.08 62.7982 1071.89 70.2723 1067.46 76.7517C1062.97 83.5881 1056.09 86.9363 1047.26 86.9363C1041.58 86.9363 1036.15 86.4039 1030.97 85.3318L1030.95 85.3279C1026.16 84.3014 1021.2 83.3593 1016.06 82.5027L1016.01 82.4949L1015.96 82.4851C1011.16 81.4911 1005.72 80.9851 999.65 80.9851C986.491 80.9851 977.541 84.7145 972.141 91.6433C966.671 98.8869 963.855 108.07 963.855 119.367C963.855 128.521 965.684 135.774 969.148 141.299C972.857 146.936 977.659 151.093 983.581 153.821C989.785 156.427 996.683 157.749 1004.31 157.749C1010.47 157.749 1016.2 156.373 1021.53 153.628C1025.69 151.488 1028.69 147.747 1030.37 142.05H1020.87C1014.3 142.05 1008.9 140.059 1005.04 135.793L1005.02 135.771L1005 135.75C1001.27 131.425 999.479 125.983 999.479 119.626C999.479 113.272 1001.27 107.888 1005.04 103.718C1008.9 99.4515 1014.3 97.4608 1020.87 97.4607H1051.92C1063.5 97.4607 1072.29 100.578 1077.44 107.492C1082.59 113.987 1084.95 123.433 1084.95 135.409V183.796C1084.95 193.207 1082.41 200.765 1076.94 206.036C1071.56 211.223 1064.51 213.722 1056.06 213.722C1047.13 213.722 1039.81 211.252 1034.4 206.036C1028.93 200.765 1026.39 193.207 1026.39 183.796V175.454C1025.25 187.789 1021.23 197.425 1014.01 204.012L1014 204.022L1013.99 204.033C1005.49 211.608 994.24 215.275 980.503 215.275H978.174C963.858 215.275 951.319 211.146 940.671 202.844L940.66 202.837L940.65 202.828C930.081 194.408 921.992 182.987 916.337 168.672L916.333 168.662C910.683 154.183 907.882 137.911 907.882 119.885C907.882 103.087 910.331 88.278 915.297 75.5085L915.3 75.4998L915.304 75.4919C920.416 62.6219 927.324 51.8774 936.06 43.3201C944.934 34.6236 955.153 28.1352 966.699 23.8718C978.371 19.4535 990.654 17.2488 1003.53 17.2488Z" fill="white" fill-opacity="0.05" stroke="url(#paint1_linear_23_4)" stroke-width="5"/>
<path d="M819.8 2.5C829.92 2.50003 838.319 5.22099 844.741 10.8877C851.312 16.6858 854.385 25.3291 854.385 36.3086C854.385 42.6093 854.035 49.5017 853.339 56.9814C852.804 64.4106 851.386 71.5852 849.081 78.499C846.894 85.5756 843.318 91.4713 838.316 96.1025L838.314 96.1055C833.242 100.787 826.358 102.979 817.988 102.979C811.388 102.979 806.023 101.747 802.427 98.7852L802.394 98.7588L802.362 98.7305C798.833 95.6164 797.117 91.453 797.117 86.5059C797.117 81.7145 798.73 77.7007 802.096 74.7656L802.427 74.4844C806.028 71.3468 811.397 70.0332 817.988 70.0332C822.647 70.0332 826.889 70.1196 830.711 70.292H835.479L834.677 65.4863C833.836 65.822 832.876 66.1916 831.804 66.5938L831.738 66.6191L831.672 66.6396C828.551 67.6148 824.285 68.0469 819.023 68.0469C810.081 68.0469 802.211 65.5718 795.529 60.5605L795.513 60.5479L795.495 60.5342C788.515 55.1055 785.215 46.8553 785.215 36.3086C785.215 25.3291 788.287 16.6858 794.858 10.8877L794.886 10.8643C801.46 5.22908 809.837 2.5 819.8 2.5Z" fill="white" fill-opacity="0.05" stroke="url(#paint2_linear_23_4)" stroke-width="5"/>
<path d="M653.283 19.8362C663.232 19.8362 671.808 22.4691 678.863 27.8528C686.028 33.321 691.322 42.7091 695.011 55.5295L722.198 148.415V52.3508C722.198 42.8053 724.631 34.9922 729.798 29.2327C735.032 23.2236 742.43 20.3538 751.607 20.3538C761.048 20.3538 768.496 23.179 773.42 29.2375L773.88 29.7834C778.559 35.4899 780.758 43.1087 780.758 52.3508V169.305C780.758 184.095 777.51 195.531 770.52 203.088C763.559 210.613 753.857 214.24 741.775 214.24C729.603 214.24 719.774 211.009 712.628 204.24C705.646 197.624 700.463 188.03 696.936 175.685V175.684L678.57 112.823L678.539 112.719L678.518 112.613C678.245 111.246 677.705 110.039 676.899 108.964L676.796 108.827L676.713 108.679C676.215 107.782 675.774 107.636 675.277 107.636C674.666 107.636 674.339 107.76 674.169 107.862C674.018 107.952 673.844 108.112 673.68 108.48L673.657 108.531L673.631 108.582C673.135 109.576 672.86 110.739 672.86 112.122V181.725C672.86 191.111 670.508 198.895 665.548 204.808C660.469 210.864 653.037 213.723 643.709 213.723C634.536 213.723 627.199 210.853 622.129 204.808C617.17 198.895 614.817 191.111 614.817 181.725V60.3723C614.817 51.1232 616.503 43.3907 620.083 37.3606L620.089 37.3508L620.095 37.342C623.764 31.2882 628.507 26.7895 634.34 23.967L634.354 23.9602L634.369 23.9534C640.236 21.2031 646.551 19.8362 653.283 19.8362Z" fill="white" fill-opacity="0.05" stroke="url(#paint3_linear_23_4)" stroke-width="5"/>
<path d="M528.321 20.8713C537.895 20.8713 545.541 23.1052 550.793 28.0139C556.077 32.9524 558.508 40.1911 558.508 49.2463C558.508 57.5174 556.102 64.3966 551.081 69.6106C545.942 74.947 538.17 77.3625 528.321 77.3625H474.761C472.061 77.3625 470.461 78.1293 469.476 79.2747C468.428 80.4919 467.688 82.5809 467.688 85.9885V102.272C475.329 100.535 483.242 98.5318 491.428 96.2581L491.439 96.2551C501.107 93.6185 510.3 92.2864 519.007 92.2864C527.397 92.2864 534.139 94.1468 538.752 98.3264C543.513 102.31 545.829 107.787 545.829 114.45C545.829 121.278 543.521 126.92 538.766 131.081L538.76 131.086C534.167 135.08 527.45 136.955 519.06 137.133H519.058C510.331 137.311 501.121 136.062 491.439 133.422C483.096 131.147 475.093 129.141 467.429 127.404V158.179C467.429 160.95 468.125 162.374 468.964 163.115C469.257 163.264 469.773 163.385 470.704 163.221C471.781 163.031 473.223 162.486 475.07 161.443C483.796 156.382 492.374 152.352 500.804 149.365C509.328 146.169 517.73 144.553 525.993 144.553C537.607 144.553 546.801 147.593 553.117 154.082C559.519 160.485 562.647 168.832 562.647 178.879C562.647 189.583 559.362 198.172 552.519 204.27L552.52 204.271C545.798 210.416 535.198 213.205 521.335 213.205H475.02C466.414 213.205 458.141 212.415 450.207 210.828L450.196 210.825C442.275 209.205 435.209 206.133 429.034 201.593L429 201.569L428.968 201.543C422.87 196.739 418.069 189.974 414.493 181.393L414.481 181.365L414.47 181.335C411.039 172.488 409.385 161.108 409.385 147.312C409.385 134.852 411.05 124.019 414.458 114.871C417.804 105.891 421.817 98.616 426.556 93.1487L426.587 93.1135C430.557 88.7029 434.407 85.4781 438.144 83.7112L437.902 82.7961H435.431C426.924 82.7961 419.921 80.0887 414.713 74.4954L414.683 74.4631L414.653 74.4299C409.688 68.7002 407.237 61.0956 407.057 51.884L407.047 51.0354C407.025 42.3121 409.41 35.0347 414.426 29.4612L414.44 29.4446L414.456 29.428C419.818 23.6826 426.896 20.8714 435.431 20.8713H528.321Z" fill="white" fill-opacity="0.05" stroke="url(#paint4_linear_23_4)" stroke-width="5"/>
<path d="M272.542 19.8362C281.683 19.8363 289.065 22.5971 294.305 28.4075C299.589 33.9016 302.209 40.7327 302.209 48.7288V90.6877L339.328 38.2288C346.422 28.1218 354.435 22.0115 363.459 20.6487C372.277 19.1479 380.322 21.2373 387.422 26.843H387.421C392.19 30.48 395.331 35.3684 396.837 41.3948C398.356 47.4699 397.852 53.8447 395.469 60.4446C393.033 67.1924 388.216 73.4061 381.249 79.1233L381.235 79.135L338.952 113.316V115.1C344.077 115.274 349.869 115.969 356.315 117.168C364.132 118.622 371.224 121.896 377.565 126.959C382.554 130.704 386.847 134.993 390.434 139.825L390.792 140.293C394.468 145.155 397.321 151.069 399.394 157.978H399.393C401.559 165.024 402.604 173.827 402.604 184.313C402.604 193.242 400.131 200.695 394.978 206.422L394.979 206.423C389.875 212.116 382.365 214.757 372.935 214.757C363.494 214.757 355.864 212.112 350.437 206.49L350.407 206.459L350.377 206.426C345.223 200.698 342.75 193.244 342.75 184.313C342.75 175.057 341.228 168.032 338.413 163.028L338.39 162.988L338.37 162.947C335.641 157.65 332.021 153.919 327.541 151.602C322.908 149.206 317.87 148 312.388 148H302.209V186.124C302.209 194.182 299.37 200.969 293.683 206.292L293.684 206.293C288.149 211.637 281.025 214.24 272.542 214.24C264.056 214.24 256.865 211.638 251.17 206.323L251.155 206.308L251.14 206.293C245.615 200.958 242.873 194.169 242.873 186.124V49.2463C242.873 41.0471 245.599 34.0291 251.079 28.3606C256.614 22.6348 263.85 19.8362 272.542 19.8362Z" fill="white" fill-opacity="0.05" stroke="url(#paint5_linear_23_4)" stroke-width="5"/>
<path d="M200.767 19.8362C209.904 19.8363 217.344 22.5934 222.745 28.3606C228.222 33.8517 230.952 40.6983 230.952 48.7288V186.124C230.952 194.211 228.005 201.006 222.136 206.322L222.137 206.323C216.442 211.638 209.252 214.24 200.767 214.24C192.283 214.24 185.159 211.637 179.624 206.293C174.099 200.958 171.357 194.169 171.356 186.124V49.2463C171.356 41.0733 173.979 34.066 179.273 28.3928L179.289 28.3772L179.304 28.3606C184.839 22.6348 192.075 19.8362 200.767 19.8362Z" fill="white" fill-opacity="0.05" stroke="url(#paint6_linear_23_4)" stroke-width="5"/>
<path d="M102.04 20.3538C120.991 20.3538 135.27 24.9073 144.225 34.595C153.015 43.9344 157.324 56.0566 157.324 70.7219C157.324 82.4888 154.559 92.4989 148.868 100.592C143.919 107.851 136.738 112.501 127.54 114.632C137.631 115.876 146.083 119.961 152.753 126.956H152.752C160.598 134.829 164.311 146.339 164.311 161.026C164.311 177.057 159.663 190.072 150.141 199.778L150.132 199.785L150.124 199.794C140.458 209.46 124.889 213.898 104.089 213.723V213.722L63.2119 213.464L63.165 213.463L63.1191 213.461C55.017 213.109 47.4118 211.963 40.3125 210.011L40.3047 210.008L40.2969 210.006C33.2233 208.011 26.9429 204.646 21.4844 199.915L21.4668 199.901L21.4492 199.885C15.9042 194.895 11.6489 188.133 8.60938 179.73L8.59375 179.685C5.71442 171.227 4.32032 160.579 4.32031 147.829C4.32031 135.368 5.98688 124.455 9.38867 115.145L9.39551 115.125L9.40332 115.106C12.9233 105.954 17.1088 98.5154 22.0127 92.885C25.9815 88.3283 29.8405 85.0005 33.5977 83.2004L33.3555 82.2786H30.8838C22.3771 82.2785 15.3736 79.5711 10.166 73.9778L10.1357 73.9456L10.1064 73.9124C5.148 68.1911 2.6909 60.6785 2.50977 51.6252C2.32776 42.5247 4.70103 34.9556 9.87891 29.2024L9.88184 29.1995C15.2368 23.2708 22.3217 20.3538 30.8838 20.3538H102.04ZM66.5918 126.266C62.7979 126.266 60.7896 126.863 59.9082 127.505C59.7081 127.704 59.4143 128.134 59.1689 129.024C58.9044 129.983 58.7412 131.314 58.7412 133.08V146.794C58.7412 150.377 59.414 152.065 60.0293 152.734C60.8882 153.453 62.8328 154.126 66.5918 154.126H93.2422C99.7256 154.126 104.337 152.954 107.381 150.924C110.039 149.152 111.701 145.826 111.701 140.067C111.701 134.292 110.034 131.113 107.451 129.514L107.416 129.491L107.381 129.468C104.337 127.438 99.7256 126.266 93.2422 126.266H66.5918ZM66.0742 77.1038C64.2765 77.1038 62.8564 77.2268 61.7773 77.4426C60.6744 77.6632 60.0868 77.9491 59.8115 78.1555C59.7381 78.2106 59.4375 78.4995 59.1689 79.4729C58.9064 80.4247 58.7412 81.7952 58.7412 83.6594V94.7854C58.7412 96.5517 58.9043 97.8837 59.1689 98.843C59.4356 99.8096 59.7594 100.235 59.958 100.408C60.595 100.966 62.3431 101.601 66.0742 101.601H89.8789C96.2251 101.601 100.719 100.675 103.633 99.0891C105.998 97.6513 107.562 94.752 107.562 89.3518C107.561 83.6978 105.957 80.8916 103.682 79.6399C100.77 78.0383 96.26 77.1038 89.8789 77.1038H66.0742Z" fill="white" fill-opacity="0.05" stroke="url(#paint7_linear_23_4)" stroke-width="5"/>
</g>
<defs>
<filter id="filter0_ii_23_4" x="-25" y="-25" width="1316.33" height="267.775" filterUnits="userSpaceOnUse" color-interpolation-filters="sRGB">
<feFlood flood-opacity="0" result="BackgroundImageFix"/>
<feBlend mode="normal" in="SourceGraphic" in2="BackgroundImageFix" result="shape"/>
<feColorMatrix in="SourceAlpha" type="matrix" values="0 0 0 0 0 0 0 0 0 0 0 0 0 0 0 0 0 0 127 0" result="hardAlpha"/>
<feOffset dy="-4"/>
<feGaussianBlur stdDeviation="2"/>
<feComposite in2="hardAlpha" operator="arithmetic" k2="-1" k3="1"/>
<feColorMatrix type="matrix" values="0 0 0 0 1 0 0 0 0 1 0 0 0 0 1 0 0 0 0.15 0"/>
<feBlend mode="normal" in2="shape" result="effect1_innerShadow_23_4"/>
<feColorMatrix in="SourceAlpha" type="matrix" values="0 0 0 0 0 0 0 0 0 0 0 0 0 0 0 0 0 0 127 0" result="hardAlpha"/>
<feOffset dy="4"/>
<feGaussianBlur stdDeviation="2"/>
<feComposite in2="hardAlpha" operator="arithmetic" k2="-1" k3="1"/>
<feColorMatrix type="matrix" values="0 0 0 0 1 0 0 0 0 1 0 0 0 0 1 0 0 0 0.35 0"/>
<feBlend mode="normal" in2="effect1_innerShadow_23_4" result="effect2_innerShadow_23_4"/>
</filter>
<linearGradient id="paint0_linear_23_4" x1="1086.48" y1="233.027" x2="1245.45" y2="9.98757" gradientUnits="userSpaceOnUse">
<stop stop-color="white" stop-opacity="0.05"/>
<stop offset="0.475962" stop-color="white"/>
<stop offset="1" stop-color="white" stop-opacity="0.05"/>
</linearGradient>
<linearGradient id="paint1_linear_23_4" x1="906.541" y1="234.061" x2="1067.78" y2="9.22762" gradientUnits="userSpaceOnUse">
<stop stop-color="white" stop-opacity="0.05"/>
<stop offset="0.475962" stop-color="white"/>
<stop offset="1" stop-color="white" stop-opacity="0.05"/>
</linearGradient>
<linearGradient id="paint2_linear_23_4" x1="786.283" y1="111.007" x2="870.38" y2="22.5926" gradientUnits="userSpaceOnUse">
<stop stop-color="white" stop-opacity="0.05"/>
<stop offset="0.475962" stop-color="white"/>
<stop offset="1" stop-color="white" stop-opacity="0.05"/>
</linearGradient>
<linearGradient id="paint3_linear_23_4" x1="613.725" y1="232.626" x2="774.217" y2="19.2969" gradientUnits="userSpaceOnUse">
<stop stop-color="white" stop-opacity="0.05"/>
<stop offset="0.475962" stop-color="white"/>
<stop offset="1" stop-color="white" stop-opacity="0.05"/>
</linearGradient>
<linearGradient id="paint4_linear_23_4" x1="406.185" y1="231.363" x2="567.15" y2="28.9409" gradientUnits="userSpaceOnUse">
<stop stop-color="white" stop-opacity="0.05"/>
<stop offset="0.475962" stop-color="white"/>
<stop offset="1" stop-color="white" stop-opacity="0.05"/>
</linearGradient>
<linearGradient id="paint5_linear_23_4" x1="241.919" y1="233.201" x2="404.604" y2="25.8679" gradientUnits="userSpaceOnUse">
<stop stop-color="white" stop-opacity="0.05"/>
<stop offset="0.475962" stop-color="white"/>
<stop offset="1" stop-color="white" stop-opacity="0.05"/>
</linearGradient>
<linearGradient id="paint6_linear_23_4" x1="172.638" y1="232.626" x2="297.821" y2="176.18" gradientUnits="userSpaceOnUse">
<stop stop-color="white" stop-opacity="0.05"/>
<stop offset="0.475962" stop-color="white"/>
<stop offset="1" stop-color="white" stop-opacity="0.05"/>
</linearGradient>
<linearGradient id="paint7_linear_23_4" x1="1.5" y1="232" x2="162" y2="23" gradientUnits="userSpaceOnUse">
<stop stop-color="white" stop-opacity="0.05"/>
<stop offset="0.475962" stop-color="white"/>
<stop offset="1" stop-color="white" stop-opacity="0.05"/>
</linearGradient>
</defs>
</svg>
