<svg width="1257" height="208" viewBox="0 0 1257 208" fill="none" xmlns="http://www.w3.org/2000/svg">
<path d="M1170.94 206.999C1152.48 206.999 1136.87 202.945 1124.11 194.837C1111.34 186.73 1101.68 175.518 1095.13 161.2C1088.57 146.883 1085.29 130.409 1085.29 111.779C1085.29 93.3218 1088.57 76.9344 1095.13 62.617C1101.68 48.1271 1111.34 36.8284 1124.11 28.7209C1136.87 20.441 1152.48 16.301 1170.94 16.301C1189.4 16.301 1204.92 20.441 1217.51 28.7209C1230.28 36.8284 1239.94 48.1271 1246.49 62.617C1253.05 76.9344 1256.33 93.3218 1256.33 111.779C1256.33 130.409 1253.05 146.883 1246.49 161.2C1239.94 175.518 1230.28 186.73 1217.51 194.837C1204.92 202.945 1189.4 206.999 1170.94 206.999ZM1117.9 107.639C1117.9 112.987 1119.19 118.075 1121.78 122.905C1124.36 127.563 1129.45 131.358 1137.04 134.29C1144.63 137.05 1155.93 138.43 1170.94 138.43C1185.95 138.43 1197.16 137.05 1204.58 134.29C1212.17 131.358 1217.25 127.563 1219.84 122.905C1222.43 118.075 1223.72 112.987 1223.72 107.639C1223.72 102.119 1222.43 97.203 1219.84 92.8905C1217.25 88.4056 1212.17 84.8693 1204.58 82.2819C1197.16 79.5219 1185.95 78.1419 1170.94 78.1419C1155.93 78.1419 1144.63 79.5219 1137.04 82.2819C1129.45 84.8693 1124.36 88.4056 1121.78 92.8905C1119.19 97.203 1117.9 102.119 1117.9 107.639Z" fill="#EB4B98"/>
<path d="M973.174 207.775C959.374 207.775 947.385 203.808 937.208 195.873C927.031 187.765 919.182 176.725 913.662 162.753C908.142 148.608 905.382 132.652 905.382 114.884C905.382 98.3245 907.797 83.8346 912.627 71.4147C917.629 58.8222 924.357 48.3861 932.809 40.1061C941.434 31.6537 951.353 25.3574 962.565 21.2175C973.95 16.905 985.939 14.7488 998.531 14.7488C1021.65 14.7488 1038.72 18.0263 1049.76 24.5812C1060.98 30.9637 1066.58 39.2436 1066.58 49.4211C1066.58 57.356 1064.51 64.3422 1060.37 70.3797C1056.4 76.4171 1050.37 79.4359 1042.26 79.4359C1036.74 79.4359 1031.48 78.9184 1026.48 77.8834C1021.65 76.8484 1016.64 75.8996 1011.47 75.0371C1006.47 74.0022 1000.86 73.4847 994.65 73.4847C981.023 73.4847 971.19 77.3659 965.153 85.1283C959.288 92.8908 956.355 102.637 956.355 114.367C956.355 123.854 958.253 131.617 962.048 137.654C966.015 143.692 971.19 148.177 977.573 151.109C984.128 153.869 991.373 155.249 999.308 155.249C1005.86 155.249 1011.99 153.783 1017.68 150.85C1023.37 147.918 1026.99 142.484 1028.55 134.549H1015.87C1009.83 134.549 1005.17 132.738 1001.9 129.116C998.618 125.321 996.979 120.491 996.979 114.626C996.979 108.761 998.618 104.017 1001.9 100.394C1005.17 96.772 1009.83 94.9608 1015.87 94.9608H1046.92C1058.13 94.9608 1065.98 97.9795 1070.46 104.017C1075.12 109.882 1077.45 118.679 1077.45 130.409V178.795C1077.45 187.765 1075.03 194.579 1070.2 199.236C1065.37 203.894 1058.99 206.223 1051.06 206.223C1042.6 206.223 1035.96 203.894 1031.13 199.236C1026.3 194.579 1023.89 187.765 1023.89 178.795V162.753H1019.23C1019.23 178.45 1015.26 189.921 1007.33 197.166C999.394 204.239 988.785 207.775 975.503 207.775H973.174Z" fill="#EB4B98"/>
<path d="M794.617 81.5057C794.617 77.1933 796.084 73.8295 799.016 71.4146C801.949 68.8271 806.606 67.5333 812.989 67.5333C817.646 67.5333 821.872 67.6196 825.667 67.7921C829.635 67.7921 832.222 67.7921 833.43 67.7921L831.618 56.9246C830.583 57.4421 828.686 58.2184 825.926 59.2534C823.166 60.1159 819.198 60.5471 814.024 60.5471C805.571 60.5471 798.24 58.2184 792.03 53.5609C785.82 48.7309 782.715 41.3135 782.715 31.3085C782.715 20.7861 785.647 12.9374 791.512 7.76246C797.55 2.58748 805.312 0 814.8 0C824.46 0 832.222 2.58748 838.087 7.76246C843.952 12.9374 846.885 20.7861 846.885 31.3085C846.885 37.5185 846.54 44.3322 845.85 51.7497C845.332 58.9946 843.952 65.9808 841.71 72.7083C839.64 79.4358 836.276 84.9557 831.618 89.2682C827.133 93.4082 820.923 95.4782 812.989 95.4782C806.606 95.4782 801.949 94.2707 799.016 91.8557C796.084 89.2682 794.617 85.8182 794.617 81.5057Z" fill="#EB4B98"/>
<path d="M638.709 206.223C630.084 206.223 623.529 203.549 619.045 198.201C614.56 192.854 612.317 185.695 612.317 176.725V55.3722C612.317 46.4022 613.956 39.1573 617.233 33.6373C620.683 27.9448 625.082 23.8049 630.429 21.2174C635.949 18.6299 641.901 17.3362 648.283 17.3362C657.77 17.3362 665.792 19.8374 672.347 24.8399C678.902 29.8423 683.99 38.6398 687.613 51.2322L715.558 146.71H719.698V47.351C719.698 38.2085 722.026 31.0498 726.684 25.8749C731.341 20.5274 737.983 17.8537 746.607 17.8537C755.577 17.8537 762.219 20.5274 766.531 25.8749C771.016 31.0498 773.259 38.2085 773.259 47.351V164.305C773.259 178.795 770.067 189.49 763.685 196.39C757.302 203.29 748.332 206.74 736.775 206.74C725.045 206.74 715.903 203.635 709.348 197.425C702.793 191.215 697.79 182.073 694.34 169.998L675.969 107.122C675.624 105.397 674.934 103.844 673.899 102.464C673.037 100.912 671.829 100.136 670.277 100.136C668.379 100.136 667.085 100.912 666.395 102.464C665.705 103.844 665.36 105.397 665.36 107.122V176.725C665.36 185.695 663.118 192.854 658.633 198.201C654.148 203.549 647.507 206.223 638.709 206.223Z" fill="#EB4B98"/>
<path d="M470.02 205.705C461.567 205.705 453.46 204.929 445.697 203.376C438.107 201.824 431.38 198.891 425.515 194.579C419.822 190.094 415.251 183.712 411.801 175.432C408.524 166.979 406.885 155.939 406.885 142.312C406.885 130.064 408.524 119.542 411.801 110.745C415.079 101.947 418.96 94.9609 423.445 89.7859C428.102 84.6109 432.329 81.4197 436.124 80.2122L434.83 75.296H430.431C422.496 75.296 416.2 72.7947 411.542 67.7923C407.057 62.6173 404.729 55.6311 404.556 46.8336C404.384 38.2087 406.626 31.3087 411.284 26.1338C416.114 20.9588 422.496 18.3713 430.431 18.3713H523.322C541.779 18.3713 551.008 26.9963 551.008 44.2462C551.008 52.0086 548.765 58.2186 544.28 62.8761C539.795 67.5335 532.809 69.8623 523.322 69.8623H469.761C463.378 69.8623 460.187 73.571 460.187 80.9884V100.395C468.812 98.4971 477.782 96.2546 487.097 93.6671C496.584 91.0796 505.554 89.7859 514.007 89.7859C522.114 89.7859 528.152 91.5971 532.119 95.2196C536.259 98.6696 538.329 103.413 538.329 109.451C538.329 115.661 536.259 120.577 532.119 124.199C528.152 127.649 522.114 129.461 514.007 129.633C505.554 129.806 496.584 128.598 487.097 126.011C477.609 123.423 468.553 121.181 459.928 119.283V153.179C459.928 156.457 460.791 158.785 462.516 160.165C464.413 161.373 467.346 160.855 471.313 158.613C479.938 153.61 488.391 149.643 496.671 146.711C504.951 143.606 513.058 142.053 520.993 142.053C532.205 142.053 540.658 144.986 546.35 150.851C552.215 156.715 555.148 164.392 555.148 173.879C555.148 184.057 552.043 191.905 545.833 197.425C539.795 202.945 529.963 205.705 516.336 205.705H470.02Z" fill="#EB4B98"/>
<path d="M297.556 89.527L336.368 34.6723C343.268 24.8399 350.772 19.3199 358.879 18.1124C366.987 16.7324 374.318 18.6299 380.873 23.8049C385.185 27.0824 388.031 31.4811 389.411 37.001C390.791 42.521 390.36 48.386 388.118 54.5959C385.875 60.8059 381.39 66.6709 374.663 72.1908L331.452 107.122V112.556C336.972 112.556 343.44 113.246 350.858 114.626C358.275 116.006 365.003 119.111 371.04 123.941C375.87 127.563 380.01 131.703 383.46 136.36C387.083 141.018 389.929 146.797 391.999 153.697C394.069 160.424 395.104 168.963 395.104 179.313C395.104 187.765 392.775 194.579 388.118 199.754C383.633 204.756 376.905 207.258 367.935 207.258C358.965 207.258 352.065 204.756 347.235 199.754C342.578 194.579 340.249 187.765 340.249 179.313C340.249 169.825 338.697 162.322 335.592 156.802C332.659 151.109 328.692 146.969 323.689 144.382C318.687 141.794 313.253 140.5 307.388 140.5H294.71V181.124C294.71 188.541 292.122 194.665 286.947 199.495C281.945 204.325 275.476 206.74 267.541 206.74C259.606 206.74 253.051 204.325 247.876 199.495C242.874 194.665 240.372 188.541 240.372 181.124V44.246C240.372 36.6561 242.874 30.2736 247.876 25.0986C252.879 19.9237 259.434 17.3362 267.541 17.3362C276.166 17.3362 282.807 19.9237 287.465 25.0986C292.295 30.1011 294.71 36.3111 294.71 43.7285V89.0095L297.556 89.527Z" fill="#EB4B98"/>
<path d="M195.767 206.74C187.832 206.74 181.363 204.325 176.36 199.495C171.358 194.665 168.857 188.541 168.857 181.124V44.246C168.857 36.6561 171.272 30.2736 176.102 25.0986C181.104 19.9237 187.659 17.3362 195.767 17.3362C204.391 17.3362 211.119 19.9237 215.949 25.0986C220.951 30.1011 223.453 36.3111 223.453 43.7285V181.124C223.453 188.541 220.779 194.665 215.431 199.495C210.256 204.325 203.701 206.74 195.767 206.74Z" fill="#EB4B98"/>
<path d="M58.2276 205.964C50.2927 205.619 42.8752 204.498 35.9753 202.6C29.2478 200.703 23.2966 197.511 18.1216 193.026C12.9467 188.369 8.89294 181.986 5.96046 173.879C3.20047 165.772 1.82048 155.422 1.82048 142.829C1.82048 130.582 3.45922 119.973 6.7367 111.003C10.1867 102.033 14.2404 94.8745 18.8979 89.5271C23.5553 84.1796 27.7816 80.9021 31.5765 79.6946L30.2828 74.7784H25.8841C17.9491 74.7784 11.6529 72.2772 6.99545 67.2747C2.51047 62.0997 0.18174 55.1998 0.00924103 46.5748C-0.163258 37.9499 2.07922 31.0499 6.7367 25.875C11.5667 20.5275 17.9491 17.8538 25.8841 17.8538H97.0399C115.67 17.8538 129.125 22.3387 137.405 31.3087C145.685 40.1061 149.825 51.5773 149.825 65.7222C149.825 77.1071 147.151 86.5946 141.803 94.1845C136.628 101.774 128.78 106.346 118.257 107.898V111.779C129.642 112.297 138.871 116.264 145.943 123.682C153.188 130.927 156.811 141.708 156.811 156.025C156.811 171.55 152.326 183.884 143.356 193.026C134.386 201.996 119.637 206.395 99.1099 206.223L58.2276 205.964ZM51.2414 89.7858C51.2414 93.5808 51.9314 96.082 53.3114 97.2895C54.6914 98.497 57.2789 99.1008 61.0739 99.1008H84.8787C91.4337 99.1008 96.4361 98.152 99.8861 96.2545C103.336 94.1845 105.061 90.2171 105.061 84.3521C105.061 78.3146 103.336 74.3472 99.8861 72.4497C96.4361 70.5522 91.4337 69.6035 84.8787 69.6035H61.0739C57.2789 69.6035 54.6914 70.1209 53.3114 71.1559C51.9314 72.1909 51.2414 74.6922 51.2414 78.6596V89.7858ZM51.2414 141.794C51.2414 145.589 51.9314 148.177 53.3114 149.557C54.8639 150.937 57.6239 151.627 61.5914 151.627H88.2424C94.9699 151.627 100.145 150.419 103.767 148.004C107.39 145.589 109.201 141.277 109.201 135.067C109.201 128.857 107.39 124.631 103.767 122.388C100.145 119.973 94.9699 118.766 88.2424 118.766H61.5914C57.6239 118.766 54.8639 119.369 53.3114 120.577C51.9314 121.784 51.2414 124.286 51.2414 128.081V141.794Z" fill="#EB4B98"/>
</svg>
