<svg width="193" height="186" viewBox="0 0 193 186" fill="none" xmlns="http://www.w3.org/2000/svg">
<path d="M183.35 38.5996C188.657 38.5996 193 42.9425 193 48.25V180.929C193 185.383 187.615 187.614 184.465 184.465L155.864 155.864C154.927 154.927 153.655 154.4 152.329 154.4H48.25C42.9425 154.4 38.5996 150.057 38.5996 144.75V130.45C38.5996 127.689 40.8384 125.45 43.5996 125.45H159.05C161.811 125.45 164.05 123.212 164.05 120.45V43.5996C164.05 40.8384 166.289 38.5997 169.05 38.5996H183.35ZM135.1 0C140.407 0 144.75 4.34289 144.75 9.65039V96.5C144.75 101.807 140.407 106.15 135.1 106.15H40.6709C39.345 106.15 38.0734 106.677 37.1357 107.614L8.53516 136.215C5.38528 139.364 0 137.133 0 132.679V9.65039C0 4.34289 4.34289 0 9.65039 0H135.1ZM76.9941 77.8418C71.7573 77.8418 67.4727 82.1526 67.4727 87.4209C67.4727 92.6893 71.7572 97 76.9941 97C82.2311 97 86.5156 92.6893 86.5156 87.4209C86.5155 82.1525 82.231 77.8418 76.9941 77.8418ZM76.9463 6C64.7128 6.00013 55.983 13.3297 51.9941 22.3848C51.364 23.8153 52.1093 25.4355 53.5488 26.0449L60.3271 28.915C61.9436 29.5994 63.7798 28.7416 64.5674 27.1729C66.6792 22.9666 70.5054 18.9795 76.9941 18.9795C89.2769 18.9795 91.7051 30.5217 87.373 36.7002C83.2787 42.5912 76.2323 46.5194 72.5664 53.1768C70.3406 57.2149 70.1561 61.7314 70.2129 65.3027C70.239 66.9444 71.6013 68.2625 73.2432 68.2627H81.04C82.6969 68.2627 84.0298 66.9179 84.0781 65.2617C84.2115 60.6941 84.7078 59.3848 85.707 57.5352C88.6588 52.0752 94.1337 49.4881 99.8467 41.0107C104.988 33.3477 103.036 23.0508 99.7031 17.543C95.7992 11.1251 88.1343 6 76.9463 6Z" fill="white"/>
</svg>
