<svg width="193" height="193" viewBox="0 0 193 193" fill="none" xmlns="http://www.w3.org/2000/svg">
<g filter="url(#filter0_ii_39_24)">
<path d="M70.9655 193C51.2529 193 34.4971 186.101 20.6983 172.302C6.89942 158.503 0 141.747 0 122.034C0 102.322 6.89942 85.5661 20.6983 71.7672C34.4971 57.9684 51.2529 51.069 70.9655 51.069C72.8053 51.069 74.6123 51.1347 76.3865 51.2661C78.2926 51.4073 78.9288 53.8653 77.5224 55.1597C73.999 58.4026 71.0577 62.2629 68.6985 66.7405C65.4788 72.8514 63.8689 79.4552 63.8689 86.5517C63.8689 98.3793 68.0086 108.433 76.2879 116.712C84.5672 124.991 94.6207 129.131 106.448 129.131C113.676 129.131 120.313 127.521 126.358 124.301C130.786 121.943 134.615 119.003 137.844 115.481C139.136 114.072 141.593 114.707 141.734 116.613C141.865 118.388 141.931 120.195 141.931 122.034C141.931 141.747 135.032 158.503 121.233 172.302C107.434 186.101 90.6781 193 70.9655 193ZM70.9655 177.23C82.5302 177.23 92.9122 174.043 102.111 167.669C109.049 162.863 114.566 156.953 118.664 149.942C120.347 147.062 117.632 143.815 114.333 144.31C111.705 144.704 109.077 144.901 106.448 144.901C90.2839 144.901 76.5179 139.217 65.1503 127.85C53.7826 116.482 48.0988 102.716 48.0988 86.5517C48.0988 83.9234 48.296 81.295 48.6902 78.6667C49.185 75.3681 45.9377 72.6534 43.0579 74.3363C36.0465 78.4337 30.1374 83.9511 25.3307 90.8885C18.957 100.088 15.7701 110.47 15.7701 122.034C15.7701 137.279 21.1582 150.289 31.9345 161.065C42.7107 171.842 55.7211 177.23 70.9655 177.23Z" fill="url(#paint0_linear_39_24)" fill-opacity="0.8"/>
<path d="M106.264 110.391C112.835 110.391 118.421 108.091 123.02 103.491C127.62 98.8917 129.92 93.3065 129.92 86.7356C129.92 80.1647 127.62 74.5795 123.02 69.9799C118.421 65.3802 112.835 63.0804 106.264 63.0804C99.6935 63.0804 94.1083 65.3802 89.5087 69.9799C84.9091 74.5795 82.6092 80.1647 82.6092 86.7356C82.6092 93.3065 84.9091 98.8917 89.5087 103.491C94.1083 108.091 99.6935 110.391 106.264 110.391ZM106.264 126.161C95.3567 126.161 86.0589 122.317 78.371 114.629C70.6831 106.941 66.8391 97.6433 66.8391 86.7356C66.8391 75.8279 70.6831 66.5301 78.371 58.8422C86.0589 51.1543 95.3567 47.3103 106.264 47.3103C117.172 47.3103 126.47 51.1543 134.158 58.8422C141.846 66.5301 145.69 75.8279 145.69 86.7356C145.69 97.6433 141.846 106.941 134.158 114.629C126.47 122.317 117.172 126.161 106.264 126.161ZM51.069 86.7356C51.069 91.0904 47.5388 94.6206 43.184 94.6206H27.4139C23.0591 94.6206 19.5288 91.0904 19.5288 86.7356C19.5288 82.3808 23.0591 78.8505 27.4139 78.8505H43.184C47.5388 78.8505 51.069 82.3808 51.069 86.7356ZM193 86.7356C193 91.0904 189.47 94.6206 185.115 94.6206H169.345C164.99 94.6206 161.46 91.0904 161.46 86.7356C161.46 82.3808 164.99 78.8505 169.345 78.8505H185.115C189.47 78.8505 193 82.3808 193 86.7356ZM106.264 31.5402C101.91 31.5402 98.3793 28.01 98.3793 23.6552V7.88505C98.3793 3.53026 101.91 0 106.264 0C110.619 0 114.149 3.53026 114.149 7.88506V23.6552C114.149 28.01 110.619 31.5402 106.264 31.5402ZM106.264 173.471C101.91 173.471 98.3793 169.941 98.3793 165.586V149.816C98.3793 145.461 101.91 141.931 106.264 141.931C110.619 141.931 114.149 145.461 114.149 149.816V165.586C114.149 169.941 110.619 173.471 106.264 173.471ZM67.4237 47.4997C64.5025 50.6455 59.5701 50.7867 56.4739 47.813L47.929 39.6066C44.7668 36.5696 44.6727 31.5417 47.719 28.3885C50.8402 25.1578 56.0204 25.166 59.1313 28.4066L67.336 36.9531C70.1554 39.89 70.1938 44.5164 67.4237 47.4997ZM164.809 145.083C161.688 148.314 156.508 148.306 153.397 145.066L145.091 136.418C142.233 133.442 142.237 128.74 145.1 125.768C148.04 122.718 152.895 122.624 155.951 125.558L164.599 133.864C167.762 136.901 167.856 141.93 164.809 145.083ZM145.5 47.8948C142.354 44.9737 142.213 40.0413 145.187 36.9451L153.393 28.4002C156.43 25.238 161.458 25.1439 164.611 28.1902C167.842 31.3114 167.834 36.4916 164.593 39.6025L156.047 47.8072C153.11 50.6266 148.484 50.665 145.5 47.8948ZM47.9167 145.28C44.6861 142.159 44.6938 136.98 47.9336 133.868L56.5818 125.562C59.5578 122.704 64.2603 122.708 67.2316 125.571C70.2824 128.511 70.3764 133.366 67.4416 136.422L59.136 145.07C56.0987 148.233 51.0703 148.327 47.9167 145.28Z" fill="url(#paint1_linear_39_24)" fill-opacity="0.8"/>
</g>
<path d="M70.9658 51.1689C72.8031 51.169 74.6075 51.235 76.3789 51.3662C77.2839 51.4332 77.8887 52.0481 78.1006 52.8076C78.3128 53.5685 78.1278 54.4666 77.4551 55.0859C73.9228 58.337 70.9746 62.2071 68.6104 66.6943C65.3829 72.82 63.7686 79.4395 63.7686 86.5518C63.7686 98.4055 67.9185 108.485 76.2168 116.783C84.5151 125.081 94.5945 129.231 106.448 129.231C113.692 129.231 120.345 127.618 126.405 124.39C130.843 122.026 134.681 119.079 137.918 115.549C138.536 114.875 139.433 114.689 140.193 114.9C140.952 115.112 141.567 115.716 141.634 116.621C141.765 118.393 141.831 120.197 141.831 122.034C141.831 141.721 134.942 158.452 121.162 172.231C107.382 186.011 90.652 192.9 70.9658 192.9C51.2794 192.9 34.5484 186.011 20.7686 172.231C6.98868 158.452 0.0996094 141.721 0.0996094 122.034C0.0996752 102.348 6.98886 85.6177 20.7686 71.8379C34.5484 58.058 51.2794 51.1689 70.9658 51.1689ZM114.05 165.586C114.05 169.885 110.564 173.371 106.265 173.371C103.382 173.371 100.867 171.804 99.5215 169.476C100.414 168.929 101.297 168.355 102.168 167.751C106.745 164.579 110.706 160.928 114.05 156.798V165.586ZM112.124 144.693C113.322 146.063 114.05 147.854 114.05 149.816V156.478C110.686 160.673 106.688 164.376 102.055 167.587C101.188 168.187 100.31 168.759 99.4219 169.303C98.8207 168.198 98.4795 166.932 98.4795 165.586V149.816C98.4795 147.868 99.1955 146.088 100.378 144.723C102.362 144.907 104.386 145.001 106.448 145.001C108.34 145.001 110.232 144.897 112.124 144.693ZM61.0986 123.564C62.3376 125.053 63.6644 126.505 65.0791 127.92C66.4948 129.336 67.9484 130.664 69.4385 131.903C69.2679 133.518 68.5809 135.091 67.3691 136.353L59.0635 145.001C56.0646 148.123 51.1001 148.217 47.9863 145.209C44.7965 142.127 44.8041 137.013 48.0029 133.94L56.6514 125.635C57.9104 124.426 59.4822 123.736 61.0986 123.564ZM145.172 125.838C148.074 122.827 152.866 122.734 155.882 125.631L164.53 133.937C167.653 136.935 167.745 141.9 164.737 145.014C161.656 148.203 156.541 148.196 153.469 144.997L145.163 136.349C142.342 133.411 142.346 128.77 145.172 125.838ZM106.265 142.031C108.513 142.031 110.537 142.985 111.958 144.509C110.121 144.702 108.285 144.801 106.448 144.801C104.443 144.801 102.474 144.713 100.543 144.538C101.965 142.997 104.002 142.031 106.265 142.031ZM61.3428 123.543C63.421 123.39 65.5498 124.09 67.1621 125.644C68.8505 127.271 69.6212 129.492 69.4619 131.661C68.0133 130.45 66.5988 129.157 65.2207 127.779C63.8442 126.403 62.5523 124.99 61.3428 123.543ZM106.265 47.4102C117.146 47.4102 126.418 51.244 134.087 58.9131C141.756 66.5821 145.59 75.8542 145.59 86.7354C145.59 97.6166 141.756 106.889 134.087 114.559C126.418 122.227 117.146 126.06 106.265 126.061C95.3834 126.061 86.1105 122.228 78.4414 114.559C70.7723 106.889 66.9395 97.6166 66.9395 86.7354C66.9395 75.8543 70.7725 66.5821 78.4414 58.9131C86.1105 51.244 95.3834 47.4102 106.265 47.4102ZM106.265 62.9805C99.6676 62.9805 94.0561 65.2906 89.4375 69.9092C84.8191 74.5277 82.5088 80.1385 82.5088 86.7354C82.5088 93.3324 84.8189 98.9439 89.4375 103.562C94.0561 108.181 99.6676 110.491 106.265 110.491C112.862 110.491 118.472 108.181 123.091 103.562C127.709 98.9439 130.02 93.3324 130.02 86.7354C130.019 80.1384 127.709 74.5277 123.091 69.9092C118.472 65.2907 112.862 62.9805 106.265 62.9805ZM169.345 78.9502H185.115C189.415 78.9504 192.9 82.436 192.9 86.7354C192.9 91.0348 189.415 94.5204 185.115 94.5205H169.345C165.045 94.5205 161.56 91.0349 161.56 86.7354C161.56 82.4359 165.045 78.9503 169.345 78.9502ZM47.791 28.458C50.8728 25.2681 55.9879 25.2759 59.0596 28.4756L67.2637 37.0225C70.0463 39.921 70.0846 44.4872 67.3506 47.4316C64.4675 50.5365 59.5989 50.6761 56.543 47.7412L47.998 39.5342C44.876 36.5355 44.7832 31.5713 47.791 28.458ZM153.466 28.4697C156.464 25.3475 161.429 25.254 164.542 28.2617C167.732 31.3435 167.724 36.4586 164.524 39.5303L155.978 47.7354C153.079 50.5179 148.513 50.5554 145.568 47.8213C142.464 44.9383 142.324 40.0706 145.259 37.0146L153.466 28.4697ZM106.265 0.0996094C110.564 0.0997454 114.05 3.58542 114.05 7.88477V23.6553C114.05 27.9547 110.564 31.4403 106.265 31.4404C101.965 31.4404 98.4796 27.9548 98.4795 23.6553V7.88477C98.4796 3.58533 101.965 0.0996094 106.265 0.0996094ZM47.999 86.5518C47.999 88.6138 48.0916 90.6369 48.2764 92.6211C46.9111 93.8035 45.1315 94.5205 43.1836 94.5205H27.4141C26.0677 94.5205 24.801 94.1787 23.6963 93.5771C24.2401 92.6894 24.8126 91.812 25.4131 90.9453C28.6235 86.3118 32.3266 82.3141 36.5215 78.9502H43.1836C45.1453 78.9502 46.9366 79.6776 48.3057 80.875C48.1017 82.7672 47.999 84.6594 47.999 86.5518ZM19.6289 86.7354C19.629 82.4359 23.1146 78.9502 27.4141 78.9502H36.2021C32.0716 82.2938 28.4206 86.2545 25.249 90.832C24.6453 91.7033 24.07 92.5851 23.5234 93.4775C21.196 92.1316 19.6289 89.6173 19.6289 86.7354ZM51.1689 86.7354C51.1689 84.375 50.1439 82.2548 48.5156 80.793C48.5929 80.0892 48.6835 79.3854 48.7891 78.6816C49.042 76.9957 48.339 75.4567 47.2021 74.5547C46.0635 73.6513 44.487 73.3857 43.0078 74.25C40.7031 75.5968 38.518 77.0979 36.4512 78.751H27.4141C23.0041 78.751 19.4288 82.3254 19.4287 86.7354C19.4287 89.6898 21.0347 92.2674 23.4199 93.6484C18.2539 102.153 15.67 111.615 15.6699 122.034C15.6699 137.305 21.0686 150.341 31.8633 161.136C42.6583 171.931 55.6949 177.33 70.9658 177.33C81.3851 177.33 90.8466 174.745 99.3506 169.579C100.731 171.965 103.31 173.571 106.265 173.571C110.675 173.571 114.249 169.996 114.249 165.586V156.548C115.902 154.481 117.403 152.297 118.75 149.992C119.614 148.513 119.349 146.936 118.445 145.798C117.543 144.661 116.004 143.958 114.318 144.211C113.614 144.317 112.91 144.406 112.206 144.483C110.744 142.856 108.625 141.831 106.265 141.831C103.89 141.831 101.758 142.868 100.295 144.514C88.7539 143.42 78.539 139.188 69.6475 131.816C69.8555 129.545 69.0703 127.204 67.3008 125.499C65.6088 123.869 63.3626 123.153 61.1846 123.354C53.8117 114.461 49.579 104.246 48.4854 92.7041C50.1309 91.2414 51.1689 89.1102 51.1689 86.7354ZM48.1992 86.5518C48.1992 84.7148 48.2973 82.878 48.4902 81.041C50.0147 82.4621 50.9687 84.4869 50.9688 86.7354C50.9688 88.998 50.0021 91.0336 48.4609 92.4561C48.2858 90.525 48.1992 88.5568 48.1992 86.5518Z" stroke="url(#paint2_linear_39_24)" stroke-width="0.2"/>
<defs>
<filter id="filter0_ii_39_24" x="0" y="-4" width="193" height="201" filterUnits="userSpaceOnUse" color-interpolation-filters="sRGB">
<feFlood flood-opacity="0" result="BackgroundImageFix"/>
<feBlend mode="normal" in="SourceGraphic" in2="BackgroundImageFix" result="shape"/>
<feColorMatrix in="SourceAlpha" type="matrix" values="0 0 0 0 0 0 0 0 0 0 0 0 0 0 0 0 0 0 127 0" result="hardAlpha"/>
<feOffset dy="4"/>
<feGaussianBlur stdDeviation="2"/>
<feComposite in2="hardAlpha" operator="arithmetic" k2="-1" k3="1"/>
<feColorMatrix type="matrix" values="0 0 0 0 1 0 0 0 0 1 0 0 0 0 1 0 0 0 0.8 0"/>
<feBlend mode="normal" in2="shape" result="effect1_innerShadow_39_24"/>
<feColorMatrix in="SourceAlpha" type="matrix" values="0 0 0 0 0 0 0 0 0 0 0 0 0 0 0 0 0 0 127 0" result="hardAlpha"/>
<feOffset dy="-4"/>
<feGaussianBlur stdDeviation="2"/>
<feComposite in2="hardAlpha" operator="arithmetic" k2="-1" k3="1"/>
<feColorMatrix type="matrix" values="0 0 0 0 1 0 0 0 0 1 0 0 0 0 1 0 0 0 0.45 0"/>
<feBlend mode="normal" in2="effect1_innerShadow_39_24" result="effect2_innerShadow_39_24"/>
</filter>
<linearGradient id="paint0_linear_39_24" x1="96.5" y1="96.4531" x2="96.5" y2="241.953" gradientUnits="userSpaceOnUse">
<stop stop-color="#EB4B98"/>
<stop offset="1" stop-color="white" stop-opacity="0.05"/>
</linearGradient>
<linearGradient id="paint1_linear_39_24" x1="106" y1="126.5" x2="106" y2="213.5" gradientUnits="userSpaceOnUse">
<stop stop-color="#EB4B98"/>
<stop offset="1" stop-color="white" stop-opacity="0.05"/>
</linearGradient>
<linearGradient id="paint2_linear_39_24" x1="156.5" y1="15" x2="49" y2="157.5" gradientUnits="userSpaceOnUse">
<stop stop-color="#EB4B98" stop-opacity="0.05"/>
<stop offset="0.5" stop-color="white"/>
<stop offset="1" stop-color="#EB4B98" stop-opacity="0.05"/>
</linearGradient>
</defs>
</svg>
