<svg width="154" height="193" viewBox="0 0 154 193" fill="none" xmlns="http://www.w3.org/2000/svg">
<mask id="path-1-inside-1_37_83" fill="white">
<path d="M77 0C98.2711 0 115.5 17.2733 115.5 38.5996H134.75C145.337 38.5996 154 47.2854 154 57.9004V173.7C154 184.315 145.337 193 134.75 193H19.25C8.66257 193 0.000107918 184.315 0 173.7V57.9004C0 47.2854 8.6625 38.5996 19.25 38.5996H38.5C38.5002 17.2733 55.7289 0 77 0ZM19.25 57.9004V173.7H134.75V57.9004H115.5V77.2002C115.5 82.5076 111.169 86.8496 105.875 86.8496C100.581 86.8496 96.2501 82.5076 96.25 77.2002V57.9004H57.75V77.2002C57.7499 82.5076 53.4187 86.8496 48.125 86.8496C42.8313 86.8496 38.5001 82.5076 38.5 77.2002V57.9004H19.25ZM77 19.2998C66.4126 19.2998 57.7502 27.9848 57.75 38.5996H96.25C96.2498 27.9848 87.5874 19.2998 77 19.2998Z"/>
</mask>
<g filter="url(#filter0_ii_37_83)">
<path d="M77 0C98.2711 0 115.5 17.2733 115.5 38.5996H134.75C145.337 38.5996 154 47.2854 154 57.9004V173.7C154 184.315 145.337 193 134.75 193H19.25C8.66257 193 0.000107918 184.315 0 173.7V57.9004C0 47.2854 8.6625 38.5996 19.25 38.5996H38.5C38.5002 17.2733 55.7289 0 77 0ZM19.25 57.9004V173.7H134.75V57.9004H115.5V77.2002C115.5 82.5076 111.169 86.8496 105.875 86.8496C100.581 86.8496 96.2501 82.5076 96.25 77.2002V57.9004H57.75V77.2002C57.7499 82.5076 53.4187 86.8496 48.125 86.8496C42.8313 86.8496 38.5001 82.5076 38.5 77.2002V57.9004H19.25ZM77 19.2998C66.4126 19.2998 57.7502 27.9848 57.75 38.5996H96.25C96.2498 27.9848 87.5874 19.2998 77 19.2998Z" fill="url(#paint0_linear_37_83)" fill-opacity="0.8"/>
</g>
<path d="M115.5 38.5996L115 38.5996L115 39.0996H115.5V38.5996ZM154 173.7L154.5 173.7V173.7H154ZM0 173.7L-0.5 173.7L-0.5 173.7L0 173.7ZM38.5 38.5996V39.0996H39L39 38.5996L38.5 38.5996ZM19.25 57.9004V57.4004H18.75V57.9004H19.25ZM19.25 173.7H18.75V174.2H19.25V173.7ZM134.75 173.7V174.2H135.25V173.7H134.75ZM134.75 57.9004H135.25V57.4004H134.75V57.9004ZM115.5 57.9004V57.4004H115V57.9004H115.5ZM115.5 77.2002L116 77.2002V77.2002H115.5ZM96.25 77.2002L95.75 77.2002L95.75 77.2002L96.25 77.2002ZM96.25 57.9004H96.75V57.4004H96.25V57.9004ZM57.75 57.9004V57.4004H57.25V57.9004H57.75ZM57.75 77.2002L58.25 77.2002V77.2002H57.75ZM38.5 77.2002L38 77.2002L38 77.2002L38.5 77.2002ZM38.5 57.9004H39V57.4004H38.5V57.9004ZM57.75 38.5996L57.25 38.5996L57.25 39.0996H57.75V38.5996ZM96.25 38.5996V39.0996H96.75L96.75 38.5996L96.25 38.5996ZM77 0V0.5C97.9938 0.5 115 17.5482 115 38.5996L115.5 38.5996L116 38.5996C116 16.9984 98.5485 -0.5 77 -0.5V0ZM115.5 38.5996V39.0996H134.75V38.5996V38.0996H115.5V38.5996ZM134.75 38.5996V39.0996C145.06 39.0996 153.5 47.5603 153.5 57.9004H154H154.5C154.5 47.0105 145.615 38.0996 134.75 38.0996V38.5996ZM154 57.9004H153.5V173.7H154H154.5V57.9004H154ZM154 173.7L153.5 173.7C153.5 184.04 145.06 192.5 134.75 192.5V193V193.5C145.615 193.5 154.5 184.59 154.5 173.7L154 173.7ZM134.75 193V192.5H19.25V193V193.5H134.75V193ZM19.25 193V192.5C8.93993 192.5 0.500105 184.04 0.5 173.7L0 173.7L-0.5 173.7C-0.499889 184.59 8.3852 193.5 19.25 193.5V193ZM0 173.7H0.5V57.9004H0H-0.5V173.7H0ZM0 57.9004H0.5C0.5 47.5603 8.93989 39.0996 19.25 39.0996V38.5996V38.0996C8.38511 38.0996 -0.5 47.0105 -0.5 57.9004H0ZM19.25 38.5996V39.0996H38.5V38.5996V38.0996H19.25V38.5996ZM38.5 38.5996L39 38.5996C39.0002 17.5482 56.0062 0.5 77 0.5V0V-0.5C55.4515 -0.5 38.0002 16.9984 38 38.5996L38.5 38.5996ZM19.25 57.9004H18.75V173.7H19.25H19.75V57.9004H19.25ZM19.25 173.7V174.2H134.75V173.7V173.2H19.25V173.7ZM134.75 173.7H135.25V57.9004H134.75H134.25V173.7H134.75ZM134.75 57.9004V57.4004H115.5V57.9004V58.4004H134.75V57.9004ZM115.5 57.9004H115V77.2002H115.5H116V57.9004H115.5ZM115.5 77.2002L115 77.2002C115 82.2327 110.891 86.3496 105.875 86.3496V86.8496V87.3496C111.446 87.3496 116 82.7826 116 77.2002L115.5 77.2002ZM105.875 86.8496V86.3496C100.859 86.3496 96.7501 82.2327 96.75 77.2002L96.25 77.2002L95.75 77.2002C95.7501 82.7826 100.304 87.3496 105.875 87.3496V86.8496ZM96.25 77.2002H96.75V57.9004H96.25H95.75V77.2002H96.25ZM96.25 57.9004V57.4004H57.75V57.9004V58.4004H96.25V57.9004ZM57.75 57.9004H57.25V77.2002H57.75H58.25V57.9004H57.75ZM57.75 77.2002L57.25 77.2002C57.2499 82.2327 53.1414 86.3496 48.125 86.3496V86.8496V87.3496C53.696 87.3496 58.2499 82.7826 58.25 77.2002L57.75 77.2002ZM48.125 86.8496V86.3496C43.1086 86.3496 39.0001 82.2327 39 77.2002L38.5 77.2002L38 77.2002C38.0001 82.7826 42.554 87.3496 48.125 87.3496V86.8496ZM38.5 77.2002H39V57.9004H38.5H38V77.2002H38.5ZM38.5 57.9004V57.4004H19.25V57.9004V58.4004H38.5V57.9004ZM77 19.2998V18.7998C66.1353 18.7998 57.2502 27.7099 57.25 38.5996L57.75 38.5996L58.25 38.5996C58.2502 28.2597 66.69 19.7998 77 19.7998V19.2998ZM57.75 38.5996V39.0996H96.25V38.5996V38.0996H57.75V38.5996ZM96.25 38.5996L96.75 38.5996C96.7498 27.7099 87.8647 18.7998 77 18.7998V19.2998V19.7998C87.31 19.7998 95.7498 28.2597 95.75 38.5996L96.25 38.5996Z" fill="url(#paint1_linear_37_83)" mask="url(#path-1-inside-1_37_83)"/>
<defs>
<filter id="filter0_ii_37_83" x="0" y="-4" width="154" height="201" filterUnits="userSpaceOnUse" color-interpolation-filters="sRGB">
<feFlood flood-opacity="0" result="BackgroundImageFix"/>
<feBlend mode="normal" in="SourceGraphic" in2="BackgroundImageFix" result="shape"/>
<feColorMatrix in="SourceAlpha" type="matrix" values="0 0 0 0 0 0 0 0 0 0 0 0 0 0 0 0 0 0 127 0" result="hardAlpha"/>
<feOffset dy="4"/>
<feGaussianBlur stdDeviation="2"/>
<feComposite in2="hardAlpha" operator="arithmetic" k2="-1" k3="1"/>
<feColorMatrix type="matrix" values="0 0 0 0 1 0 0 0 0 1 0 0 0 0 1 0 0 0 0.8 0"/>
<feBlend mode="normal" in2="shape" result="effect1_innerShadow_37_83"/>
<feColorMatrix in="SourceAlpha" type="matrix" values="0 0 0 0 0 0 0 0 0 0 0 0 0 0 0 0 0 0 127 0" result="hardAlpha"/>
<feOffset dy="-4"/>
<feGaussianBlur stdDeviation="2"/>
<feComposite in2="hardAlpha" operator="arithmetic" k2="-1" k3="1"/>
<feColorMatrix type="matrix" values="0 0 0 0 1 0 0 0 0 1 0 0 0 0 1 0 0 0 0.5 0"/>
<feBlend mode="normal" in2="effect1_innerShadow_37_83" result="effect2_innerShadow_37_83"/>
</filter>
<linearGradient id="paint0_linear_37_83" x1="80.5" y1="97" x2="77" y2="237" gradientUnits="userSpaceOnUse">
<stop stop-color="#EB4B98"/>
<stop offset="1" stop-color="white" stop-opacity="0.05"/>
</linearGradient>
<linearGradient id="paint1_linear_37_83" x1="187" y1="8.99999" x2="-11" y2="193" gradientUnits="userSpaceOnUse">
<stop stop-color="#EB4B98" stop-opacity="0.05"/>
<stop offset="0.5" stop-color="white"/>
<stop offset="1" stop-color="#EB4B98" stop-opacity="0.05"/>
</linearGradient>
</defs>
</svg>
