<svg width="1257" height="208" viewBox="0 0 1257 208" fill="none" xmlns="http://www.w3.org/2000/svg">
<g filter="url(#filter0_ii_37_25)">
<path d="M1170.94 16.301C1189.4 16.301 1204.92 20.441 1217.51 28.7209C1230.28 36.8284 1239.94 48.1276 1246.49 62.6174C1253.05 76.9348 1256.33 93.3223 1256.33 111.78C1256.33 130.409 1253.05 146.883 1246.49 161.2C1239.94 175.518 1230.28 186.73 1217.51 194.837C1204.92 202.945 1189.4 206.998 1170.94 206.998C1152.48 206.998 1136.87 202.945 1124.11 194.837C1111.34 186.73 1101.68 175.518 1095.12 161.2C1088.57 146.883 1085.29 130.409 1085.29 111.78C1085.29 93.3224 1088.57 76.9347 1095.12 62.6174C1101.68 48.1275 1111.34 36.8284 1124.11 28.7209C1136.87 20.4411 1152.48 16.3011 1170.94 16.301ZM1170.94 78.1418C1155.93 78.1419 1144.63 79.5216 1137.04 82.2815C1129.45 84.869 1124.36 88.4059 1121.78 92.8909C1119.19 97.2032 1117.9 102.119 1117.9 107.639C1117.9 112.986 1119.19 118.076 1121.78 122.906C1124.36 127.563 1129.45 131.358 1137.04 134.29C1144.63 137.05 1155.93 138.43 1170.94 138.43C1185.95 138.43 1197.16 137.05 1204.58 134.29C1212.17 131.358 1217.25 127.563 1219.84 122.906C1222.43 118.076 1223.72 112.986 1223.72 107.639C1223.72 102.119 1222.43 97.2032 1219.84 92.8909C1217.25 88.4059 1212.17 84.869 1204.58 82.2815C1197.16 79.5215 1185.95 78.1418 1170.94 78.1418Z" fill="url(#paint0_linear_37_25)" fill-opacity="0.8"/>
<path d="M1170.94 16.301C1189.4 16.301 1204.92 20.441 1217.51 28.7209C1230.28 36.8284 1239.94 48.1276 1246.49 62.6174C1253.05 76.9348 1256.33 93.3223 1256.33 111.78C1256.33 130.409 1253.05 146.883 1246.49 161.2C1239.94 175.518 1230.28 186.73 1217.51 194.837C1204.92 202.945 1189.4 206.998 1170.94 206.998C1152.48 206.998 1136.87 202.945 1124.11 194.837C1111.34 186.73 1101.68 175.518 1095.12 161.2C1088.57 146.883 1085.29 130.409 1085.29 111.78C1085.29 93.3224 1088.57 76.9347 1095.12 62.6174C1101.68 48.1275 1111.34 36.8284 1124.11 28.7209C1136.87 20.4411 1152.48 16.3011 1170.94 16.301ZM1170.94 78.1418C1155.93 78.1419 1144.63 79.5216 1137.04 82.2815C1129.45 84.869 1124.36 88.4059 1121.78 92.8909C1119.19 97.2032 1117.9 102.119 1117.9 107.639C1117.9 112.986 1119.19 118.076 1121.78 122.906C1124.36 127.563 1129.45 131.358 1137.04 134.29C1144.63 137.05 1155.93 138.43 1170.94 138.43C1185.95 138.43 1197.16 137.05 1204.58 134.29C1212.17 131.358 1217.25 127.563 1219.84 122.906C1222.43 118.076 1223.72 112.986 1223.72 107.639C1223.72 102.119 1222.43 97.2032 1219.84 92.8909C1217.25 88.4059 1212.17 84.869 1204.58 82.2815C1197.16 79.5215 1185.95 78.1418 1170.94 78.1418Z" stroke="url(#paint1_linear_37_25)"/>
<path d="M998.531 14.7488C1021.65 14.7488 1038.72 18.0259 1049.76 24.5808C1060.98 30.9632 1066.58 39.2434 1066.58 49.4207C1066.58 57.3556 1064.51 64.3422 1060.37 70.3796C1056.4 76.4171 1050.37 79.4363 1042.26 79.4363C1036.74 79.4363 1031.48 78.9185 1026.48 77.8835C1021.65 76.8486 1016.64 75.8994 1011.47 75.0369C1006.47 74.0019 1000.86 73.4851 994.651 73.4851C981.023 73.4851 971.19 77.3662 965.152 85.1287C959.288 92.8911 956.356 102.637 956.356 114.367C956.356 123.854 958.253 131.617 962.048 137.654C966.015 143.691 971.19 148.177 977.572 151.109C984.127 153.869 991.373 155.249 999.308 155.249C1005.86 155.249 1011.99 153.783 1017.68 150.85C1023.37 147.918 1026.99 142.484 1028.55 134.55H1015.87C1009.83 134.55 1005.17 132.738 1001.89 129.116C998.617 125.321 996.979 120.491 996.979 114.626C996.979 108.761 998.617 104.017 1001.89 100.394C1005.17 96.7719 1009.83 94.9608 1015.87 94.9607H1046.92C1058.13 94.9607 1065.98 97.9799 1070.46 104.017C1075.12 109.882 1077.45 118.679 1077.45 130.409V178.796C1077.45 187.765 1075.03 194.579 1070.21 199.236C1065.38 203.893 1058.99 206.222 1051.06 206.222C1042.61 206.222 1035.96 203.894 1031.13 199.236C1026.3 194.579 1023.89 187.765 1023.89 178.796V162.753H1019.23C1019.23 178.45 1015.26 189.922 1007.33 197.167C999.394 204.239 988.785 207.775 975.503 207.775H973.174C959.374 207.775 947.385 203.808 937.208 195.873C927.031 187.765 919.182 176.725 913.662 162.753C908.142 148.608 905.382 132.652 905.382 114.885C905.382 98.3246 907.797 83.8347 912.627 71.4148C917.63 58.8224 924.357 48.3861 932.81 40.1062C941.435 31.6538 951.353 25.3575 962.566 21.2175C973.95 16.9051 985.939 14.7488 998.531 14.7488Z" fill="url(#paint2_linear_37_25)" fill-opacity="0.8"/>
<path d="M998.531 14.7488C1021.65 14.7488 1038.72 18.0259 1049.76 24.5808C1060.98 30.9632 1066.58 39.2434 1066.58 49.4207C1066.58 57.3556 1064.51 64.3422 1060.37 70.3796C1056.4 76.4171 1050.37 79.4363 1042.26 79.4363C1036.74 79.4363 1031.48 78.9185 1026.48 77.8835C1021.65 76.8486 1016.64 75.8994 1011.47 75.0369C1006.47 74.0019 1000.86 73.4851 994.651 73.4851C981.023 73.4851 971.19 77.3662 965.152 85.1287C959.288 92.8911 956.356 102.637 956.356 114.367C956.356 123.854 958.253 131.617 962.048 137.654C966.015 143.691 971.19 148.177 977.572 151.109C984.127 153.869 991.373 155.249 999.308 155.249C1005.86 155.249 1011.99 153.783 1017.68 150.85C1023.37 147.918 1026.99 142.484 1028.55 134.55H1015.87C1009.83 134.55 1005.17 132.738 1001.89 129.116C998.617 125.321 996.979 120.491 996.979 114.626C996.979 108.761 998.617 104.017 1001.89 100.394C1005.17 96.7719 1009.83 94.9608 1015.87 94.9607H1046.92C1058.13 94.9607 1065.98 97.9799 1070.46 104.017C1075.12 109.882 1077.45 118.679 1077.45 130.409V178.796C1077.45 187.765 1075.03 194.579 1070.21 199.236C1065.38 203.893 1058.99 206.222 1051.06 206.222C1042.61 206.222 1035.96 203.894 1031.13 199.236C1026.3 194.579 1023.89 187.765 1023.89 178.796V162.753H1019.23C1019.23 178.45 1015.26 189.922 1007.33 197.167C999.394 204.239 988.785 207.775 975.503 207.775H973.174C959.374 207.775 947.385 203.808 937.208 195.873C927.031 187.765 919.182 176.725 913.662 162.753C908.142 148.608 905.382 132.652 905.382 114.885C905.382 98.3246 907.797 83.8347 912.627 71.4148C917.63 58.8224 924.357 48.3861 932.81 40.1062C941.435 31.6538 951.353 25.3575 962.566 21.2175C973.95 16.9051 985.939 14.7488 998.531 14.7488Z" stroke="url(#paint3_linear_37_25)"/>
<path d="M814.8 0C824.46 2.70962e-05 832.222 2.58775 838.087 7.7627C843.952 12.9377 846.885 20.7862 846.885 31.3086C846.885 37.5185 846.54 44.3326 845.85 51.75C845.332 58.9947 843.952 65.9808 841.71 72.708C839.64 79.4355 836.276 84.9561 831.618 89.2686C827.133 93.4084 820.923 95.4785 812.988 95.4785C806.606 95.4785 801.948 94.2704 799.016 91.8555C796.084 89.268 794.617 85.8181 794.617 81.5059C794.617 77.1936 796.084 73.83 799.016 71.415C801.948 68.8276 806.606 67.5332 812.988 67.5332C817.646 67.5332 821.872 67.6195 825.667 67.792H833.43L831.618 56.9248C830.583 57.4423 828.686 58.218 825.926 59.2529C823.166 60.1154 819.199 60.5469 814.024 60.5469C805.571 60.5469 798.239 58.218 792.029 53.5605C785.82 48.7306 782.715 41.3133 782.715 31.3086C782.715 20.7862 785.648 12.9377 791.513 7.7627C797.55 2.58779 805.313 0 814.8 0Z" fill="url(#paint4_linear_37_25)" fill-opacity="0.8"/>
<path d="M814.8 0C824.46 2.70962e-05 832.222 2.58775 838.087 7.7627C843.952 12.9377 846.885 20.7862 846.885 31.3086C846.885 37.5185 846.54 44.3326 845.85 51.75C845.332 58.9947 843.952 65.9808 841.71 72.708C839.64 79.4355 836.276 84.9561 831.618 89.2686C827.133 93.4084 820.923 95.4785 812.988 95.4785C806.606 95.4785 801.948 94.2704 799.016 91.8555C796.084 89.268 794.617 85.8181 794.617 81.5059C794.617 77.1936 796.084 73.83 799.016 71.415C801.948 68.8276 806.606 67.5332 812.988 67.5332C817.646 67.5332 821.872 67.6195 825.667 67.792H833.43L831.618 56.9248C830.583 57.4423 828.686 58.218 825.926 59.2529C823.166 60.1154 819.199 60.5469 814.024 60.5469C805.571 60.5469 798.239 58.218 792.029 53.5605C785.82 48.7306 782.715 41.3133 782.715 31.3086C782.715 20.7862 785.648 12.9377 791.513 7.7627C797.55 2.58779 805.313 0 814.8 0Z" stroke="url(#paint5_linear_37_25)"/>
<path d="M648.283 17.3362C657.77 17.3362 665.791 19.8377 672.346 24.8401C678.901 29.8426 683.99 38.6402 687.613 51.2327L715.557 146.71H719.698V47.3508C719.698 38.2085 722.027 31.0502 726.684 25.8752C731.342 20.5279 737.982 17.8538 746.607 17.8538C755.577 17.8538 762.218 20.5278 766.531 25.8752C771.016 31.0502 773.258 38.2085 773.258 47.3508V164.305C773.258 178.795 770.067 189.49 763.685 196.39C757.303 203.29 748.332 206.74 736.775 206.74C725.045 206.74 715.902 203.635 709.347 197.425C702.792 191.215 697.79 182.072 694.34 169.997L675.969 107.122C675.624 105.397 674.934 103.844 673.899 102.464C673.037 100.912 671.829 100.136 670.277 100.136C668.38 100.136 667.085 100.912 666.395 102.464C665.705 103.844 665.36 105.397 665.36 107.122V176.725C665.36 185.695 663.118 192.854 658.633 198.201C654.148 203.549 647.507 206.223 638.71 206.223C630.085 206.223 623.53 203.549 619.045 198.201C614.56 192.854 612.317 185.695 612.317 176.725V55.3723C612.317 46.4024 613.956 39.1569 617.233 33.637C620.683 27.9446 625.082 23.8045 630.429 21.217C635.949 18.6296 641.9 17.3362 648.283 17.3362Z" fill="url(#paint6_linear_37_25)" fill-opacity="0.8"/>
<path d="M648.283 17.3362C657.77 17.3362 665.791 19.8377 672.346 24.8401C678.901 29.8426 683.99 38.6402 687.613 51.2327L715.557 146.71H719.698V47.3508C719.698 38.2085 722.027 31.0502 726.684 25.8752C731.342 20.5279 737.982 17.8538 746.607 17.8538C755.577 17.8538 762.218 20.5278 766.531 25.8752C771.016 31.0502 773.258 38.2085 773.258 47.3508V164.305C773.258 178.795 770.067 189.49 763.685 196.39C757.303 203.29 748.332 206.74 736.775 206.74C725.045 206.74 715.902 203.635 709.347 197.425C702.792 191.215 697.79 182.072 694.34 169.997L675.969 107.122C675.624 105.397 674.934 103.844 673.899 102.464C673.037 100.912 671.829 100.136 670.277 100.136C668.38 100.136 667.085 100.912 666.395 102.464C665.705 103.844 665.36 105.397 665.36 107.122V176.725C665.36 185.695 663.118 192.854 658.633 198.201C654.148 203.549 647.507 206.223 638.71 206.223C630.085 206.223 623.53 203.549 619.045 198.201C614.56 192.854 612.317 185.695 612.317 176.725V55.3723C612.317 46.4024 613.956 39.1569 617.233 33.637C620.683 27.9446 625.082 23.8045 630.429 21.217C635.949 18.6296 641.9 17.3362 648.283 17.3362Z" stroke="url(#paint7_linear_37_25)"/>
<path d="M523.321 18.3713C541.779 18.3713 551.008 26.9965 551.008 44.2463C551.008 52.0087 548.765 58.2188 544.28 62.8762C539.795 67.5336 532.809 69.8625 523.321 69.8625H469.761C463.378 69.8625 460.188 73.5711 460.188 80.9885V100.395C468.812 98.4973 477.782 96.2547 487.097 93.6672C496.584 91.0798 505.555 89.7864 514.007 89.7864C522.114 89.7864 528.152 91.5975 532.119 95.22C536.259 98.6699 538.329 103.413 538.329 109.45C538.329 115.66 536.259 120.577 532.119 124.199C528.152 127.649 522.114 129.461 514.007 129.633C505.555 129.806 496.584 128.598 487.097 126.011C477.61 123.424 468.554 121.181 459.929 119.283V153.179C459.929 156.456 460.791 158.785 462.516 160.165C464.413 161.373 467.346 160.855 471.314 158.613C479.938 153.61 488.391 149.643 496.671 146.71C504.951 143.605 513.059 142.053 520.993 142.053C532.206 142.053 540.658 144.986 546.351 150.851C552.215 156.716 555.148 164.392 555.148 173.879C555.148 184.056 552.043 191.905 545.833 197.425C539.796 202.945 529.963 205.705 516.335 205.705H470.02C461.567 205.705 453.46 204.929 445.697 203.376C438.108 201.824 431.38 198.892 425.515 194.579C419.822 190.094 415.251 183.712 411.801 175.432C408.523 166.979 406.885 155.939 406.885 142.312C406.885 130.064 408.523 119.542 411.801 110.744C415.078 101.947 418.96 94.9613 423.444 89.7864C428.102 84.6115 432.328 81.4197 436.123 80.2122L434.83 75.2961H430.431C422.496 75.2961 416.2 72.7946 411.542 67.7922C407.057 62.6173 404.728 55.6306 404.556 46.8333C404.383 38.2087 406.626 31.3089 411.283 26.134C416.113 20.9591 422.496 18.3714 430.431 18.3713H523.321Z" fill="url(#paint8_linear_37_25)" fill-opacity="0.8"/>
<path d="M523.321 18.3713C541.779 18.3713 551.008 26.9965 551.008 44.2463C551.008 52.0087 548.765 58.2188 544.28 62.8762C539.795 67.5336 532.809 69.8625 523.321 69.8625H469.761C463.378 69.8625 460.188 73.5711 460.188 80.9885V100.395C468.812 98.4973 477.782 96.2547 487.097 93.6672C496.584 91.0798 505.555 89.7864 514.007 89.7864C522.114 89.7864 528.152 91.5975 532.119 95.22C536.259 98.6699 538.329 103.413 538.329 109.45C538.329 115.66 536.259 120.577 532.119 124.199C528.152 127.649 522.114 129.461 514.007 129.633C505.555 129.806 496.584 128.598 487.097 126.011C477.61 123.424 468.554 121.181 459.929 119.283V153.179C459.929 156.456 460.791 158.785 462.516 160.165C464.413 161.373 467.346 160.855 471.314 158.613C479.938 153.61 488.391 149.643 496.671 146.71C504.951 143.605 513.059 142.053 520.993 142.053C532.206 142.053 540.658 144.986 546.351 150.851C552.215 156.716 555.148 164.392 555.148 173.879C555.148 184.056 552.043 191.905 545.833 197.425C539.796 202.945 529.963 205.705 516.335 205.705H470.02C461.567 205.705 453.46 204.929 445.697 203.376C438.108 201.824 431.38 198.892 425.515 194.579C419.822 190.094 415.251 183.712 411.801 175.432C408.523 166.979 406.885 155.939 406.885 142.312C406.885 130.064 408.523 119.542 411.801 110.744C415.078 101.947 418.96 94.9613 423.444 89.7864C428.102 84.6115 432.328 81.4197 436.123 80.2122L434.83 75.2961H430.431C422.496 75.2961 416.2 72.7946 411.542 67.7922C407.057 62.6173 404.728 55.6306 404.556 46.8333C404.383 38.2087 406.626 31.3089 411.283 26.134C416.113 20.9591 422.496 18.3714 430.431 18.3713H523.321Z" stroke="url(#paint9_linear_37_25)"/>
<path d="M267.541 17.3362C276.166 17.3363 282.807 19.924 287.464 25.0989C292.294 30.1014 294.709 36.3113 294.709 43.7288V89.009L297.556 89.5266L336.368 34.6721C343.268 24.8399 350.772 19.32 358.879 18.1125C366.987 16.7326 374.317 18.6301 380.872 23.8049C385.185 27.0824 388.031 31.4813 389.411 37.0012C390.791 42.5211 390.36 48.386 388.117 54.5959C385.875 60.8059 381.39 66.6707 374.662 72.1907L331.451 107.122V112.556C336.971 112.556 343.44 113.245 350.858 114.625C358.275 116.005 365.003 119.111 371.04 123.941C375.87 127.563 380.01 131.703 383.46 136.361C387.083 141.018 389.929 146.797 391.999 153.697C394.069 160.424 395.104 168.963 395.104 179.313C395.104 187.765 392.775 194.579 388.117 199.754C383.633 204.756 376.905 207.257 367.935 207.257C358.965 207.257 352.066 204.756 347.236 199.754C342.578 194.579 340.249 187.765 340.249 179.313C340.249 169.826 338.697 162.322 335.592 156.802C332.66 151.11 328.692 146.97 323.69 144.382C318.687 141.795 313.253 140.5 307.388 140.5H294.709V181.124C294.709 188.542 292.122 194.665 286.948 199.495C281.945 204.325 275.476 206.74 267.541 206.74C259.606 206.74 253.051 204.325 247.876 199.495C242.874 194.665 240.372 188.542 240.372 181.124V44.2463C240.372 36.6564 242.874 30.2738 247.876 25.0989C252.879 19.9239 259.434 17.3362 267.541 17.3362Z" fill="url(#paint10_linear_37_25)" fill-opacity="0.8"/>
<path d="M267.541 17.3362C276.166 17.3363 282.807 19.924 287.464 25.0989C292.294 30.1014 294.709 36.3113 294.709 43.7288V89.009L297.556 89.5266L336.368 34.6721C343.268 24.8399 350.772 19.32 358.879 18.1125C366.987 16.7326 374.317 18.6301 380.872 23.8049C385.185 27.0824 388.031 31.4813 389.411 37.0012C390.791 42.5211 390.36 48.386 388.117 54.5959C385.875 60.8059 381.39 66.6707 374.662 72.1907L331.451 107.122V112.556C336.971 112.556 343.44 113.245 350.858 114.625C358.275 116.005 365.003 119.111 371.04 123.941C375.87 127.563 380.01 131.703 383.46 136.361C387.083 141.018 389.929 146.797 391.999 153.697C394.069 160.424 395.104 168.963 395.104 179.313C395.104 187.765 392.775 194.579 388.117 199.754C383.633 204.756 376.905 207.257 367.935 207.257C358.965 207.257 352.066 204.756 347.236 199.754C342.578 194.579 340.249 187.765 340.249 179.313C340.249 169.826 338.697 162.322 335.592 156.802C332.66 151.11 328.692 146.97 323.69 144.382C318.687 141.795 313.253 140.5 307.388 140.5H294.709V181.124C294.709 188.542 292.122 194.665 286.948 199.495C281.945 204.325 275.476 206.74 267.541 206.74C259.606 206.74 253.051 204.325 247.876 199.495C242.874 194.665 240.372 188.542 240.372 181.124V44.2463C240.372 36.6564 242.874 30.2738 247.876 25.0989C252.879 19.9239 259.434 17.3362 267.541 17.3362Z" stroke="black"/>
<path d="M195.767 17.3362C204.392 17.3362 211.119 19.924 215.948 25.0989C220.951 30.1014 223.452 36.3113 223.452 43.7288V181.124C223.452 188.542 220.779 194.665 215.432 199.495C210.257 204.325 203.702 206.74 195.767 206.74C187.832 206.74 181.363 204.325 176.361 199.495C171.358 194.665 168.857 188.542 168.857 181.124V44.2463C168.857 36.6564 171.272 30.2738 176.102 25.0989C181.104 19.9239 187.659 17.3362 195.767 17.3362Z" fill="url(#paint11_linear_37_25)" fill-opacity="0.8"/>
<path d="M195.767 17.3362C204.392 17.3362 211.119 19.924 215.948 25.0989C220.951 30.1014 223.452 36.3113 223.452 43.7288V181.124C223.452 188.542 220.779 194.665 215.432 199.495C210.257 204.325 203.702 206.74 195.767 206.74C187.832 206.74 181.363 204.325 176.361 199.495C171.358 194.665 168.857 188.542 168.857 181.124V44.2463C168.857 36.6564 171.272 30.2738 176.102 25.0989C181.104 19.9239 187.659 17.3362 195.767 17.3362Z" stroke="url(#paint12_linear_37_25)"/>
<path d="M97.04 17.8538C115.67 17.8538 129.124 22.339 137.404 31.3088C145.684 40.1062 149.824 51.5772 149.824 65.7219C149.824 77.1069 147.151 86.5949 141.804 94.1848C136.629 101.775 128.779 106.346 118.257 107.899V111.78C129.642 112.297 138.871 116.264 145.943 123.682C153.188 130.927 156.811 141.708 156.811 156.026C156.811 171.55 152.325 183.884 143.355 193.027C134.386 201.996 119.637 206.395 99.1104 206.223L58.2275 205.964C50.2927 205.619 42.8755 204.497 35.9756 202.6C29.2483 200.702 23.297 197.511 18.1221 193.027C12.9472 188.369 8.89341 181.986 5.96094 173.879C3.20096 165.772 1.82032 155.422 1.82031 142.829C1.82031 130.582 3.45888 119.973 6.73633 111.003C10.1863 102.033 14.24 94.8741 18.8975 89.5266C23.5548 84.1793 27.7813 80.9022 31.5762 79.6946L30.2832 74.7786H25.8838C17.949 74.7785 11.6525 72.2771 6.99512 67.2747C2.51025 62.0997 0.181286 55.1993 0.00878906 46.5745C-0.163633 37.9499 2.07913 31.0501 6.73633 25.8752C11.5662 20.5278 17.949 17.8538 25.8838 17.8538H97.04ZM61.5918 118.766C57.6246 118.766 54.8641 119.369 53.3115 120.576C51.9316 121.784 51.2412 124.285 51.2412 128.08V141.794C51.2412 145.589 51.9315 148.177 53.3115 149.557C54.864 150.937 57.6245 151.626 61.5918 151.626H88.2422C94.9696 151.626 100.145 150.419 103.768 148.004C107.39 145.589 109.201 141.277 109.201 135.067C109.201 128.857 107.39 124.63 103.768 122.388C100.145 119.973 94.9696 118.766 88.2422 118.766H61.5918ZM61.0742 69.6038C57.2795 69.6038 54.6916 70.1207 53.3115 71.1555C51.9316 72.1905 51.2412 74.6921 51.2412 78.6594V89.7854C51.2412 93.5803 51.9316 96.0818 53.3115 97.2893C54.6915 98.4968 57.2792 99.1008 61.0742 99.1008H84.8789C91.4337 99.1008 96.4358 98.1516 99.8857 96.2542C103.336 94.1842 105.062 90.2168 105.062 84.3518C105.061 78.3145 103.336 74.3469 99.8857 72.4495C96.4358 70.5521 91.4335 69.6038 84.8789 69.6038H61.0742Z" fill="url(#paint13_linear_37_25)" fill-opacity="0.8"/>
<path d="M97.04 17.8538C115.67 17.8538 129.124 22.339 137.404 31.3088C145.684 40.1062 149.824 51.5772 149.824 65.7219C149.824 77.1069 147.151 86.5949 141.804 94.1848C136.629 101.775 128.779 106.346 118.257 107.899V111.78C129.642 112.297 138.871 116.264 145.943 123.682C153.188 130.927 156.811 141.708 156.811 156.026C156.811 171.55 152.325 183.884 143.355 193.027C134.386 201.996 119.637 206.395 99.1104 206.223L58.2275 205.964C50.2927 205.619 42.8755 204.497 35.9756 202.6C29.2483 200.702 23.297 197.511 18.1221 193.027C12.9472 188.369 8.89341 181.986 5.96094 173.879C3.20096 165.772 1.82032 155.422 1.82031 142.829C1.82031 130.582 3.45888 119.973 6.73633 111.003C10.1863 102.033 14.24 94.8741 18.8975 89.5266C23.5548 84.1793 27.7813 80.9022 31.5762 79.6946L30.2832 74.7786H25.8838C17.949 74.7785 11.6525 72.2771 6.99512 67.2747C2.51025 62.0997 0.181286 55.1993 0.00878906 46.5745C-0.163633 37.9499 2.07913 31.0501 6.73633 25.8752C11.5662 20.5278 17.949 17.8538 25.8838 17.8538H97.04ZM61.5918 118.766C57.6246 118.766 54.8641 119.369 53.3115 120.576C51.9316 121.784 51.2412 124.285 51.2412 128.08V141.794C51.2412 145.589 51.9315 148.177 53.3115 149.557C54.864 150.937 57.6245 151.626 61.5918 151.626H88.2422C94.9696 151.626 100.145 150.419 103.768 148.004C107.39 145.589 109.201 141.277 109.201 135.067C109.201 128.857 107.39 124.63 103.768 122.388C100.145 119.973 94.9696 118.766 88.2422 118.766H61.5918ZM61.0742 69.6038C57.2795 69.6038 54.6916 70.1207 53.3115 71.1555C51.9316 72.1905 51.2412 74.6921 51.2412 78.6594V89.7854C51.2412 93.5803 51.9316 96.0818 53.3115 97.2893C54.6915 98.4968 57.2792 99.1008 61.0742 99.1008H84.8789C91.4337 99.1008 96.4358 98.1516 99.8857 96.2542C103.336 94.1842 105.062 90.2168 105.062 84.3518C105.061 78.3145 103.336 74.3469 99.8857 72.4495C96.4358 70.5521 91.4335 69.6038 84.8789 69.6038H61.0742Z" stroke="url(#paint14_linear_37_25)"/>
</g>
<defs>
<filter id="filter0_ii_37_25" x="0" y="-3" width="1256.33" height="216.775" filterUnits="userSpaceOnUse" color-interpolation-filters="sRGB">
<feFlood flood-opacity="0" result="BackgroundImageFix"/>
<feBlend mode="normal" in="SourceGraphic" in2="BackgroundImageFix" result="shape"/>
<feColorMatrix in="SourceAlpha" type="matrix" values="0 0 0 0 0 0 0 0 0 0 0 0 0 0 0 0 0 0 127 0" result="hardAlpha"/>
<feOffset dy="-4"/>
<feGaussianBlur stdDeviation="1.5"/>
<feComposite in2="hardAlpha" operator="arithmetic" k2="-1" k3="1"/>
<feColorMatrix type="matrix" values="0 0 0 0 1 0 0 0 0 1 0 0 0 0 1 0 0 0 0.5 0"/>
<feBlend mode="normal" in2="shape" result="effect1_innerShadow_37_25"/>
<feColorMatrix in="SourceAlpha" type="matrix" values="0 0 0 0 0 0 0 0 0 0 0 0 0 0 0 0 0 0 127 0" result="hardAlpha"/>
<feOffset dy="6"/>
<feGaussianBlur stdDeviation="5.4"/>
<feComposite in2="hardAlpha" operator="arithmetic" k2="-1" k3="1"/>
<feColorMatrix type="matrix" values="0 0 0 0 1 0 0 0 0 1 0 0 0 0 1 0 0 0 0.8 0"/>
<feBlend mode="normal" in2="effect1_innerShadow_37_25" result="effect2_innerShadow_37_25"/>
</filter>
<linearGradient id="paint0_linear_37_25" x1="1174.46" y1="89.7256" x2="1177.56" y2="243.398" gradientUnits="userSpaceOnUse">
<stop stop-color="#EB4B98"/>
<stop offset="1" stop-color="white" stop-opacity="0.05"/>
</linearGradient>
<linearGradient id="paint1_linear_37_25" x1="1256" y1="16" x2="1093" y2="216" gradientUnits="userSpaceOnUse">
<stop stop-color="#EB4B98" stop-opacity="0.05"/>
<stop offset="0.5" stop-color="white"/>
<stop offset="1" stop-color="#EB4B98" stop-opacity="0.05"/>
</linearGradient>
<linearGradient id="paint2_linear_37_25" x1="995.091" y1="89.07" x2="998.241" y2="244.618" gradientUnits="userSpaceOnUse">
<stop stop-color="#EB4B98"/>
<stop offset="1" stop-color="white" stop-opacity="0.05"/>
</linearGradient>
<linearGradient id="paint3_linear_37_25" x1="1084" y1="-3.5" x2="925.5" y2="208" gradientUnits="userSpaceOnUse">
<stop stop-color="#EB4B98" stop-opacity="0.05"/>
<stop offset="0.5" stop-color="white"/>
<stop offset="1" stop-color="#EB4B98" stop-opacity="0.05"/>
</linearGradient>
<linearGradient id="paint4_linear_37_25" x1="816.171" y1="36.7621" x2="818.236" y2="113.678" gradientUnits="userSpaceOnUse">
<stop stop-color="#EB4B98"/>
<stop offset="1" stop-color="white" stop-opacity="0.05"/>
</linearGradient>
<linearGradient id="paint5_linear_37_25" x1="874" y1="-8.5" x2="783" y2="119.5" gradientUnits="userSpaceOnUse">
<stop stop-color="#EB4B98" stop-opacity="0.05"/>
<stop offset="0.5" stop-color="white"/>
<stop offset="1" stop-color="#EB4B98" stop-opacity="0.05"/>
</linearGradient>
<linearGradient id="paint6_linear_37_25" x1="696.226" y1="90.2627" x2="699.468" y2="242.885" gradientUnits="userSpaceOnUse">
<stop stop-color="#EB4B98"/>
<stop offset="1" stop-color="white" stop-opacity="0.05"/>
</linearGradient>
<linearGradient id="paint7_linear_37_25" x1="794.5" y1="-24.5" x2="597.5" y2="238.5" gradientUnits="userSpaceOnUse">
<stop stop-color="#EB4B98" stop-opacity="0.05"/>
<stop offset="0.5" stop-color="white"/>
<stop offset="1" stop-color="#EB4B98" stop-opacity="0.05"/>
</linearGradient>
<linearGradient id="paint8_linear_37_25" x1="483.064" y1="90.5008" x2="486.454" y2="241.447" gradientUnits="userSpaceOnUse">
<stop stop-color="#EB4B98"/>
<stop offset="1" stop-color="white" stop-opacity="0.05"/>
</linearGradient>
<linearGradient id="paint9_linear_37_25" x1="570" y1="5.00001" x2="374" y2="244.5" gradientUnits="userSpaceOnUse">
<stop stop-color="#EB4B98" stop-opacity="0.05"/>
<stop offset="0.5" stop-color="white"/>
<stop offset="1" stop-color="#EB4B98" stop-opacity="0.05"/>
</linearGradient>
<linearGradient id="paint10_linear_37_25" x1="321.043" y1="90.4619" x2="324.434" y2="243.495" gradientUnits="userSpaceOnUse">
<stop stop-color="#EB4B98"/>
<stop offset="1" stop-color="white" stop-opacity="0.05"/>
</linearGradient>
<linearGradient id="paint11_linear_37_25" x1="197.321" y1="90.2627" x2="206.845" y2="242.358" gradientUnits="userSpaceOnUse">
<stop stop-color="#EB4B98"/>
<stop offset="1" stop-color="white" stop-opacity="0.05"/>
</linearGradient>
<linearGradient id="paint12_linear_37_25" x1="252.5" y1="-4.5" x2="144" y2="233" gradientUnits="userSpaceOnUse">
<stop stop-color="#EB4B98" stop-opacity="0.05"/>
<stop offset="0.5" stop-color="white"/>
<stop offset="1" stop-color="#EB4B98" stop-opacity="0.05"/>
</linearGradient>
<linearGradient id="paint13_linear_37_25" x1="81.7551" y1="90.3836" x2="85.0463" y2="242.173" gradientUnits="userSpaceOnUse">
<stop stop-color="#EB4B98"/>
<stop offset="1" stop-color="white" stop-opacity="0.05"/>
</linearGradient>
<linearGradient id="paint14_linear_37_25" x1="176" y1="4.49999" x2="-9.50001" y2="216.5" gradientUnits="userSpaceOnUse">
<stop stop-color="#EB4B98" stop-opacity="0.05"/>
<stop offset="0.5" stop-color="white"/>
<stop offset="1" stop-color="#EB4B98" stop-opacity="0.05"/>
</linearGradient>
</defs>
</svg>
